<?xml version="1.0" encoding="utf-8"?>
<!-- Generator: Adobe Illustrator 24.0.1, SVG Export Plug-In . SVG Version: 6.00 Build 0)  -->
<svg version="1.1"
	 id="svg2" xmlnsCc="http://creativecommons.org/ns#" xmlnsDc="http://purl.org/dc/elements/1.1/" xmlnsInkscape="http://www.inkscape.org/namespaces/inkscape" xmlnsRdf="http://www.w3.org/1999/02/22-rdf-syntax-ns#" xmlnsSodipodi="http://sodipodi.sourceforge.net/DTD/sodipodi-0.dtd" xmlnsSvg="http://www.w3.org/2000/svg"
	 xmlns="http://www.w3.org/2000/svg" xmlnsXlink="http://www.w3.org/1999/xlink" x="0px" y="0px" viewBox="0 0 30 9"
	 style="enable-background:new 0 0 30 9;" xmlSpace="preserve">


<a id="a18" transform="translate(-13.174896,-3.8302961)">
	<path stroke-width="0.01px" id="path20" inkscapeConnector-curvature="0" d="M34,12.7H13.8c-0.4,0-0.6-0.2-0.6-0.7V4.5c0-0.4,0.2-0.7,0.6-0.7H34
		c0.4,0,0.6,0.2,0.6,0.7v7.8C34.7,12.5,34.5,12.7,34,12.7z"/>
</a>
<path stroke-width="0.01px" d="M27.8,4.5c-1.3,0-2.1-1.1-2.1-2.2c0-1.3,1.1-2.2,2.1-2.2C29.1,0,30,1.1,30,2.2C30,3.6,29.1,4.5,27.8,4.5L27.8,4.5z"/>
</svg>
