<?xml version="1.0" encoding="utf-8"?>
<!-- Generator: Adobe Illustrator 24.0.1, SVG Export Plug-In . SVG Version: 6.00 Build 0)  -->
<svg version="1.1"
	 id="svg2" xmlnsCc="http://creativecommons.org/ns#" xmlnsDc="http://purl.org/dc/elements/1.1/" xmlnsInkscape="http://www.inkscape.org/namespaces/inkscape" xmlnsRdf="http://www.w3.org/1999/02/22-rdf-syntax-ns#" xmlnsSodipodi="http://sodipodi.sourceforge.net/DTD/sodipodi-0.dtd" xmlnsSvg="http://www.w3.org/2000/svg"
	 xmlns="http://www.w3.org/2000/svg" xmlnsSlink="http://www.w3.org/1999/xlink" x="0px" y="0px" viewBox="0 0 21 27"
	 style="enable-background:new 0 0 21 27;" xmlSpace="preserve">

<a id="a68" transform="translate(-41.4163,-5.8453001)">
	<path id="path70" inkscapeConnector-curvature="0" d="M45.6,32.2l6.5-18.8c-1.9,0.7-3.7,1.3-5.8,1.3c-2.6,0-4.9-2-4.9-4.5
		c0-2.2,1.9-4.3,4-4.3c1.4,0,2.6,0.9,3,2.2c0.5,1.6,0.2,3.4,1.9,3.4c0.9,0,3-2.7,3.3-3.6c0.2-0.7,1.2-0.7,1.6,0l-6.8,24.2
		c-0.5,0.4-0.9,0.7-1.4,0.7S46.1,32.6,45.6,32.2z"/>
</a>
<path d="M18.7,4.5c-1.4,0-2.3-1.1-2.3-2.2c0-1.3,1.2-2.2,2.3-2.2C20.1,0,21,1.1,21,2.3C21,3.6,20.1,4.5,18.7,4.5L18.7,4.5z"/>
</svg>
