<?xml version="1.0" encoding="utf-8"?>
<!-- Generator: Adobe Illustrator 24.0.1, SVG Export Plug-In . SVG Version: 6.00 Build 0)  -->
<svg version="1.1"
	 id="svg2" xmlnsCc="http://creativecommons.org/ns#" xmlnsDc="http://purl.org/dc/elements/1.1/" xmlnsInkscape="http://www.inkscape.org/namespaces/inkscape" xmlnsRdf="http://www.w3.org/1999/02/22-rdf-syntax-ns#" xmlnsSodipodi="http://sodipodi.sourceforge.net/DTD/sodipodi-0.dtd" xmlnsSvg="http://www.w3.org/2000/svg"
	 xmlns="http://www.w3.org/2000/svg" xmlnsSlink="http://www.w3.org/1999/xlink" x="0px" y="0px" viewBox="0 0 19 39"
	 style="enable-background:new 0 0 19 39;" xmlSpace="preserve">

<a id="a64" transform="translate(-48.3243,-5.8453001)">
	<path id="path66" inkscapeConnector-curvature="0" d="M53.6,44l5.9-17.7c-1.9,0.6-4,1.3-6.2,1.3c-2.6,0-5-1.7-5-4.3
		c0-2.2,1.9-3.9,4.3-3.9c1.4,0,2.9,0.9,3.3,2.2c0.5,1.5,0.2,3.2,1.9,3.2c1,0,3.1-2.8,3.6-3.7l2.6-8.2c-1.9,0.6-4,1.3-6.2,1.3
		c-2.6,0-5-1.7-5-4.3c0-2.2,1.9-3.9,4.3-3.9c1.4,0,2.9,0.9,3.3,2.2c0.5,1.5,0.2,3.2,1.9,3.2c1,0,2.9-2.6,3.3-3.4
		c0.2-0.6,1.4-0.6,1.7,0L57,44.4c-0.5,0.4-1,0.6-1.7,0.6S54.1,44.4,53.6,44z"/>
</a>
</svg>
