<?xml version="1.0" encoding="utf-8"?>
<!-- Generator: Adobe Illustrator 24.0.1, SVG Export Plug-In . SVG Version: 6.00 Build 0)  -->
<svg version="1.1"
	 id="svg2" xmlnsCc="http://creativecommons.org/ns#" xmlnsDc="http://purl.org/dc/elements/1.1/" xmlnsInkscape="http://www.inkscape.org/namespaces/inkscape" xmlnsRdf="http://www.w3.org/1999/02/22-rdf-syntax-ns#" xmlnsSodipodi="http://sodipodi.sourceforge.net/DTD/sodipodi-0.dtd" xmlnsSvg="http://www.w3.org/2000/svg"
	 xmlns="http://www.w3.org/2000/svg" xmlnsSlink="http://www.w3.org/1999/xlink" x="0px" y="0px" viewBox="0 0 25 39"
	 style="enable-background:new 0 0 25 39;" xmlSpace="preserve">

<a id="a64" transform="translate(-48.3243,-5.8453001)">
	<path id="path66" inkscapeConnector-curvature="0" d="M53.4,43.8l5.7-17.5c-1.8,0.6-3.9,1.3-6,1.3c-2.5,0-4.8-1.7-4.8-4.3
		c0-2.1,1.8-3.8,4.1-3.8c1.4,0,2.7,0.9,3.2,2.1c0.5,1.5,0.2,3.2,1.8,3.2c0.9,0,3-2.8,3.4-3.6l2.5-8.1c-1.8,0.6-3.9,1.3-6,1.3
		c-2.5,0-4.8-1.7-4.8-4.3c0-2.1,1.8-3.8,4.1-3.8c1.4,0,2.7,0.9,3.2,2.1c0.5,1.5,0.2,3.2,1.8,3.2c0.9,0,2.7-2.6,3.2-3.4
		c0.2-0.6,1.4-0.6,1.6,0L56.6,44.2c-0.5,0.4-0.9,0.6-1.6,0.6C54.3,44.8,53.8,44.2,53.4,43.8z"/>
</a>
<path d="M22.7,4.3c-1.4,0-2.3-1.1-2.3-2.1c0-1.3,1.1-2.1,2.3-2.1C24.1,0,25,1.1,25,2.1C25,3.4,24.1,4.3,22.7,4.3L22.7,4.3z"/>
</svg>
