<?xml version="1.0" encoding="utf-8"?>
<!-- Generator: Adobe Illustrator 24.0.1, SVG Export Plug-In . SVG Version: 6.00 Build 0)  -->
<svg version="1.1"
	 id="svg2" xmlnsCc="http://creativecommons.org/ns#" xmlnsDc="http://purl.org/dc/elements/1.1/" xmlnsInkscape="http://www.inkscape.org/namespaces/inkscape" xmlnsRdf="http://www.w3.org/1999/02/22-rdf-syntax-ns#" xmlnsSodipodi="http://sodipodi.sourceforge.net/DTD/sodipodi-0.dtd" xmlnsSvg="http://www.w3.org/2000/svg"
	 xmlns="http://www.w3.org/2000/svg" xmlnsSlink="http://www.w3.org/1999/xlink" x="0px" y="0px" viewBox="0 0 13 40"
	 style="enable-background:new 0 0 13 40;" xmlSpace="preserve">

<a id="a56" transform="translate(-24.2844,-5.0813001)">
	<path stroke-width="0.01px" id="path58" inkscapeConnector-curvature="0" d="M24.3,33.7c0-1.6,0.5-2.3,2-2.3c1.6,0,3.8,0.7,5.8,1.7l-6.5-8.8
		c-0.3-0.5-0.5-0.9-0.5-1.4c0-1.9,2.4-3.7,4.3-5.5c1.2-1.2,1.8-2.9,1.8-4.6c0-1.3-0.4-2.7-1.2-3.9l-1.7-2.3C28.1,6.3,28,6.1,28,5.9
		c0-0.5,0.4-0.8,0.8-0.8c0.2,0,0.4,0.1,0.5,0.3l7.4,10.1c0.3,0.5,0.5,0.9,0.5,1.4c0,1.9-2.4,3.7-4.3,5.5c-1.2,1.2-1.8,2.9-1.8,4.6
		c0,1.3,0.3,2.7,1.2,3.9l4.1,5.5c0.1,0.2,0.2,0.4,0.2,0.6c0,0.5-0.4,0.9-0.8,0.9c-0.2,0-0.4-0.1-0.6-0.3c-0.9-1.2-3.1-2.1-4.7-2.1
		c-2,0-2.6,1.5-2.6,3.7c0,2,0.5,4.1,1.4,5.3c0.2,0.3,0,0.7-0.3,0.7c-0.1,0-0.2,0-0.3-0.1C26.6,42,24.3,36.7,24.3,33.7z"/>
</a>
</svg>
