<?xml version="1.0" encoding="utf-8"?>
<!-- Generator: Adobe Illustrator 24.0.1, SVG Export Plug-In . SVG Version: 6.00 Build 0)  -->
<svg version="1.1"
	 id="svg2" xmlnsCc="http://creativecommons.org/ns#" xmlnsDc="http://purl.org/dc/elements/1.1/" xmlnsInkscape="http://www.inkscape.org/namespaces/inkscape" xmlnsRdf="http://www.w3.org/1999/02/22-rdf-syntax-ns#" xmlnsSodipodi="http://sodipodi.sourceforge.net/DTD/sodipodi-0.dtd" xmlnsSvg="http://www.w3.org/2000/svg"
	 xmlns="http://www.w3.org/2000/svg" xmlnsXlink="http://www.w3.org/1999/xlink" x="0px" y="0px" viewBox="0 0 15 27"
	 style="enable-background:new 0 0 15 27;" xmlSpace="preserve">

<a id="a68" transform="translate(-41.4163,-5.8453001)">
	<path stroke-width="0.01px" id="path70" inkscapeConnector-curvature="0" d="M45.9,32.2L53,13.3c-2,0.7-4.1,1.4-6.4,1.4c-2.8,0-5.3-2-5.3-4.5
		c0-2.3,2-4.3,4.3-4.3c1.5,0,2.8,0.9,3.3,2.3c0.5,1.6,0.3,3.4,2,3.4c1,0,3.3-2.7,3.6-3.6c0.3-0.7,1.3-0.7,1.8,0L49,32.2
		c-0.5,0.5-1,0.7-1.5,0.7C46.9,32.7,46.4,32.7,45.9,32.2z"/>
</a>
</svg>
