<?xml version="1.0" encoding="utf-8"?>
<!-- Generator: Adobe Illustrator 24.0.1, SVG Export Plug-In . SVG Version: 6.00 Build 0)  -->
<svg version="1.1" id="레이어_1" xmlns="http://www.w3.org/2000/svg" xmlns:xlink="http://www.w3.org/1999/xlink" x="0px"
	 y="0px" viewBox="0 0 14 50" style="enable-background:new 0 0 14 50;" xml:space="preserve">
<rect x="8" y="0" width="1.1" height="50"/>
<rect x="10.3" y="0" width="3.7" height="50"/>
<path d="M2.4,20.9c-1.3,0-2.4-1.2-2.4-2.5c0.2-1.5,1.3-2.5,2.6-2.5C3.9,16,5,17.1,5,18.5S3.9,20.9,2.4,20.9L2.4,20.9z"/>
<path d="M2.4,33.1c-1.3,0-2.4-1.2-2.4-2.5c0.2-1.5,1.3-2.5,2.6-2.5C3.9,28.3,5,29.3,5,30.8C5,32.2,3.9,33.1,2.4,33.1L2.4,33.1z"/>
</svg>
