<?xml version="1.0" encoding="utf-8"?>
<!-- Generator: Adobe Illustrator 24.0.1, SVG Export Plug-In . SVG Version: 6.00 Build 0)  -->
<svg version="1.1" id="레이어_1" xmlns="http://www.w3.org/2000/svg" xmlns:xlink="http://www.w3.org/1999/xlink" x="0px"
	 y="0px" viewBox="0 0 14 50" style="enable-background:new 0 0 14 50;" xml:space="preserve">
<rect x="4.9" width="1.1" height="50"/>
<rect x="0" width="3.7" height="50"/>
<path d="M11.6,29.1c1.3,0,2.4,1.2,2.4,2.5c-0.2,1.5-1.3,2.5-2.6,2.5C10.1,34,9,32.9,9,31.5S10.1,29.1,11.6,29.1L11.6,29.1z"/>
<path d="M11.6,16.9c1.3,0,2.4,1.2,2.4,2.5c-0.2,1.5-1.3,2.5-2.6,2.5C10.1,21.7,9,20.7,9,19.2S10.1,16.9,11.6,16.9L11.6,16.9z"/>
</svg>
