<?xml version="1.0" encoding="iso-8859-1"?>
<!-- Generator: Adobe Illustrator 24.0.1, SVG Export Plug-In . SVG Version: 6.00 Build 0)  -->
<svg version="1.1" id="svg1463" xmlns:svg="http://www.w3.org/2000/svg"
	 xmlns="http://www.w3.org/2000/svg" xmlns:xlink="http://www.w3.org/1999/xlink" x="0px" y="0px" viewBox="0 0 32 81"
	 style="enable-background:new 0 0 32 81;" xml:space="preserve">
<path id="path2070" d="M0.3,59.2c3.1-2.4,5.3-4.2,6.8-5.4c1.4-1.3,3.1-2.7,4.6-4.6c1.5-1.8,3-3.8,4-6.1c0.8-1.7,1.5-3.6,2.1-5.9
	c0.6-2.2,0.9-4.3,0.9-6.3s-0.1-3.6-0.6-5.2c-0.5-1.6-1.3-2.7-2.4-3.8c-1.1-1.1-2.1-1-3.8-1s-2.8,0-4.2,0.8c-1.4,0.6-2.8,1.1-3.4,2.8
	c0,0.1-0.1,0.4-0.2,0.6c0,0.4,0.2,0.6,0.5,0.8c0.2,0.3,0.6,0.3,0.8,0.3c0.1,0,0.5-0.1,0.9-0.3c0.6,0,0.9-0.1,1.3-0.1
	c1.1,0,1.9,0.4,2.7,1.3c0.8,0.8,1.2,1.8,1.2,2.9c0,0.9-0.2,1.7-0.6,2.4c-0.4,0.8-0.9,1.3-1.7,1.8c-0.7,0.4-1.5,0.6-2.4,0.6
	c-1.5,0-2.8-0.5-3.9-1.7c-1.1-1.1-1.5-2.6-1.5-4.2c0-2.2,0.6-4.2,1.8-5.7c1.2-1.7,2.7-2.8,4.6-3.7s3.7-1.3,5.5-1.3
	c2.1,0,4,0.6,5.9,1.8c1.9,1.2,3.3,2.8,4.4,4.9c1.1,2,1.7,4.3,1.7,6.6c0,4.2-1.2,8.2-3.7,11.9s-5.5,6.8-9.2,9.4
	C9.9,54.6,6,57.1,0.6,60.2L0.3,59.2L0.3,59.2L0.3,59.2L0.3,59.2L0.3,59.2L0.3,59.2z M27.1,25c0-0.8,0.2-1.4,0.7-2
	c0.5-0.5,1.1-0.8,1.8-0.8c0.6,0,1.2,0.3,1.8,0.9c0.5,0.5,0.8,1.3,0.8,2c0,0.8-0.2,1.5-0.8,2c-0.6,0.5-1.2,0.8-1.8,0.8
	c-0.7,0-1.3-0.3-1.8-0.9C27.3,26.5,27.1,25.9,27.1,25z M27.1,36.6c0-0.8,0.2-1.5,0.7-2s1.1-0.8,1.9-0.8c0.6,0,1.2,0.3,1.8,0.9
	c0.5,0.6,0.8,1.3,0.8,1.9c0,0.9-0.2,1.5-0.7,2s-1.1,0.9-1.8,0.9c-0.7,0-1.3-0.3-1.9-0.8C27.3,38.2,27.1,37.5,27.1,36.6z"/>
</svg>
