<svg xmlns="http://www.w3.org/2000/svg" viewBox="0 0 22.95 24.97"><g id="레이어_2" data-name="레이어 2"><g id="레이어_2-2" data-name="레이어 2"><path d="M0,12.7,0,12l4,0a8.49,8.49,0,0,1,7-8V0h.56l0,12.56ZM11,4.81c-2.7.86-3.09,5.41-3.14,7.07l3,0Z"/><path d="M23,12.7c0-1.53,0,.71,0-.7l-4,0a8.49,8.49,0,0,0-7-8V0h-.55l0,12.56C15.37,12.57,18.88,12.7,23,12.7Zm-11-7.89c2.7.86,3.09,5.41,3.14,7.07l-3,0Z"/><path d="M0,12.27c0,1.53,0-.71,0,.7l4,0a8.49,8.49,0,0,0,7,8v4h.56l0-12.56Zm11,7.89c-2.7-.86-3.09-5.41-3.14-7.07l3,0Z"/><path d="M23,12.27l0,.7-4,0a8.49,8.49,0,0,1-7,8v4h-.55l0-12.56C15.37,12.4,18.88,12.27,23,12.27Zm-11,7.89c2.7-.86,3.09-5.41,3.14-7.07l-3,0Z"/></g></g></svg>