<?xml version="1.0" encoding="utf-8"?>
<!-- Generator: Adobe Illustrator 25.2.0, SVG Export Plug-In . SVG Version: 6.00 Build 0)  -->
<svg version="1.1" id="레이어_1" xmlns="http://www.w3.org/2000/svg" xmlns:xlink="http://www.w3.org/1999/xlink" x="0px"
	 y="0px" viewBox="0 0 26 12" style="enable-background:new 0 0 26 12;" xml:space="preserve">
<g id="레이어_2_1_">
	<g id="레이어_1-2">
		<path id="path2008" d="M3.1,0.3L3.2,0h3.6C8-0.1,9.1,0.1,10.2,0.6C11,1,11.6,1.6,12,2.3c0.4,0.8,0.7,1.7,0.7,2.6
			c0,0.8-0.1,1.6-0.4,2.3C12,7.8,11.7,8.4,11.4,9c-0.4,0.5-0.9,1-1.4,1.5c-0.7,0.5-1.4,0.9-2.2,1.2C6.8,11.9,5.8,12,4.9,12H0
			l0.1-0.3c0.3,0,0.6,0,0.9-0.1c0.2-0.1,0.4-0.2,0.5-0.4c0.2-0.5,0.4-1,0.5-1.5l2-7.2C4.1,2,4.2,1.5,4.3,1.1c0-0.2-0.1-0.4-0.2-0.5
			C3.8,0.4,3.5,0.3,3.2,0.3H3.1z M6.1,0.7l-2.5,9c-0.1,0.4-0.2,0.8-0.3,1.3c0,0.1,0,0.2,0.1,0.3c0.1,0.1,0.1,0.1,0.2,0.2
			c0.2,0.1,0.5,0.1,0.7,0.1c0.8,0,1.6-0.1,2.4-0.3c0.7-0.1,1.3-0.4,1.9-0.9C9.3,9.7,9.9,8.9,10.3,8c0.4-1,0.6-2.2,0.6-3.3
			C11,3.6,10.6,2.5,10,1.7c-0.8-0.7-1.8-1.1-2.8-1L6.1,0.7z"/>
		<path id="path2010" d="M11.7,10.2c0.5,0,0.8,0.4,0.8,0.9v0c0,0.2-0.1,0.5-0.2,0.6c-0.2,0.2-0.4,0.3-0.6,0.3
			c-0.5,0-0.8-0.4-0.8-0.9c0,0,0,0,0,0C10.9,10.6,11.3,10.2,11.7,10.2L11.7,10.2z"/>
		<path id="path2012" d="M25.2,0l-0.8,3.7h-0.3V2.8c0-0.3-0.1-0.6-0.2-0.9c-0.1-0.3-0.2-0.5-0.4-0.7C23.2,1,23,0.8,22.7,0.8
			c-0.3-0.1-0.7-0.2-1-0.2c-0.9,0-1.8,0.3-2.5,0.8c-1,0.8-1.7,1.8-2.1,3c-0.4,1-0.6,2.1-0.6,3.2c0,1,0.3,1.9,0.9,2.7
			c0.6,0.7,1.5,1,2.4,1c0.7,0,1.4-0.2,2-0.5c0.6-0.4,1.2-1,1.6-1.6h0.4c-0.5,0.9-1.2,1.6-1.9,2.2C21,11.8,20.1,12,19.2,12
			c-0.8,0-1.6-0.2-2.4-0.6c-0.7-0.4-1.2-1-1.6-1.7c-0.4-0.7-0.5-1.5-0.5-2.3c0-1.3,0.3-2.5,0.9-3.7c0.6-1.1,1.5-2.1,2.6-2.8
			c1-0.7,2.2-1,3.3-1.1c0.6,0,1.2,0.2,1.8,0.4c0.2,0.1,0.4,0.1,0.6,0.2c0.1,0,0.2,0,0.3-0.1c0.2-0.1,0.3-0.3,0.5-0.5H25.2z"/>
		<path id="path2014" d="M25.2,10.2c0.5,0,0.8,0.4,0.8,0.9v0c0,0.2-0.1,0.5-0.2,0.6c-0.2,0.2-0.4,0.3-0.6,0.3
			c-0.5,0-0.8-0.4-0.8-0.9c0,0,0,0,0,0C24.3,10.6,24.7,10.2,25.2,10.2L25.2,10.2z"/>
	</g>
</g>
</svg>
