<svg xmlns="http://www.w3.org/2000/svg" viewBox="0 0 32 12"><g id="레이어_2" data-name="레이어 2"><g id="레이어_2-2" data-name="레이어 2"><path d="M12.82,0c-.16.66-.32,1.26-.47,1.79s-.28,1.1-.39,1.68h-.69c0-1,0-1.66-.08-1.86a.56.56,0,0,0-.26-.43,1.7,1.7,0,0,0-.76-.11H7.22C6.86,2.19,6.47,3.59,6,5.27h.86A1.78,1.78,0,0,0,8,5.05a7.47,7.47,0,0,0,.83-1.28c0-.06,0-.1.06-.1h.69L9,5.72c-.2.7-.39,1.42-.56,2.16a1.07,1.07,0,0,1-.07.35h-.7c.07-.9.1-1.4.1-1.5,0-.26-.07-.42-.22-.48a2.94,2.94,0,0,0-.93-.09H5.76L4.88,9.49q-.33,1.29-.33,1.35c0,.14.08.22.24.25l1.79.32L6.43,12c-1.2-.06-2.23-.09-3.06-.09S1.45,11.94,0,12l.18-.59a2.38,2.38,0,0,1,.42-.08,9.24,9.24,0,0,0,1-.25c.12-.05.26-.28.43-.69s.35-1,.55-1.65l.87-3c.38-1.33.67-2.37.87-3.13a8.68,8.68,0,0,0,.3-1.36A.24.24,0,0,0,4.54,1,5.53,5.53,0,0,0,3.77.76L3.05.61,3.21,0c1.87.07,3.5.1,4.88.1S11.14.07,12.82,0Z"/><path d="M11.72,6.05c1.64-1.46,2.75-2.19,3.35-2.19.29,0,.43.15.43.47a5.69,5.69,0,0,1-.3,1.16L13.83,9.6a1.64,1.64,0,0,0-.06.36q0,.18.15.18c.16,0,.51-.24,1.07-.71l.39.4a11.48,11.48,0,0,1-2,1.6,3.22,3.22,0,0,1-1.46.57c-.34,0-.51-.15-.51-.44A13.35,13.35,0,0,1,12.18,9l.6-1.71a5.58,5.58,0,0,0,.34-1.16c0-.14-.06-.22-.16-.22a2.63,2.63,0,0,0-.86.57Zm3.86-6a.79.79,0,0,1,.63.28,1,1,0,0,1,.26.67,1.87,1.87,0,0,1-.37,1.1,1,1,0,0,1-.88.52.89.89,0,0,1-.64-.25,1,1,0,0,1-.28-.76A1.74,1.74,0,0,1,14.67.49,1.08,1.08,0,0,1,15.58,0Z"/><path d="M24.47,9.84C22.93,11.28,21.79,12,21.06,12c-.37,0-.56-.18-.56-.53a1.88,1.88,0,0,1,.06-.38,12,12,0,0,1,.36-1.19l1.13-3.49a1,1,0,0,0,.09-.4q0-.24-.21-.24a1.56,1.56,0,0,0-.87.51A8.19,8.19,0,0,0,20,7.51,6.64,6.64,0,0,0,19.17,9c-.2.51-.49,1.43-.87,2.77a15.85,15.85,0,0,0-2.08.09c.85-2.66,1.39-4.41,1.64-5.25a1,1,0,0,0,.08-.38c0-.15-.05-.23-.15-.23a1.18,1.18,0,0,0-.48.27,4.63,4.63,0,0,0-.42.32l-.37-.4c1.56-1.54,2.69-2.31,3.37-2.31.27,0,.41.15.41.45a12.83,12.83,0,0,1-.93,2.9l0,0C21.11,5,22.54,3.86,23.67,3.86c.51,0,.77.24.77.73a2,2,0,0,1-.07.51L22.94,9.65a1.05,1.05,0,0,0-.05.26.15.15,0,0,0,.17.17,2.26,2.26,0,0,0,1-.65Z"/><path d="M30.8,10.26A6.37,6.37,0,0,1,27.06,12a1.53,1.53,0,0,1-1.32-.64,2.82,2.82,0,0,1-.47-1.75,5.92,5.92,0,0,1,1.58-3.94,4.87,4.87,0,0,1,3.8-1.81c.9,0,1.35.34,1.35,1A2.66,2.66,0,0,1,30.88,7,8,8,0,0,1,27.4,8.4c0,.21,0,.4,0,.56,0,1.08.33,1.61,1,1.61a1.87,1.87,0,0,0,.76-.18c.28-.13.68-.35,1.22-.67ZM27.52,7.63a4,4,0,0,0,1.95-1,2,2,0,0,0,.62-1.41c0-.36-.14-.54-.44-.54a1.57,1.57,0,0,0-1.11.69A6.47,6.47,0,0,0,27.52,7.63Z"/></g></g></svg>