<svg id="svg9919" xmlns="http://www.w3.org/2000/svg" viewBox="0 0 27 23"><defs><style>.cls-1{isolation:isolate;}</style></defs><title>대지 1</title><g class="cls-1"><path d="M.32,23V21.18h.83a2.7,2.7,0,0,0,1.54-.35c.34-.23.51-.78.51-1.66V6.56c0-1.2-.16-1.94-.48-2.23A5,5,0,0,0,0,3.9V2.12a12.27,12.27,0,0,0,6.86-2H8.62v19A2.7,2.7,0,0,0,9,20.7a2,2,0,0,0,1.62.48h.83V23Z"/></g><g class="cls-1"><path d="M11.59,23V21.45q9-8.16,9-15a5.35,5.35,0,0,0-.81-3.11,2.54,2.54,0,0,0-2.18-1.16,2.58,2.58,0,0,0-1.9.79,2.51,2.51,0,0,0-.79,1.82,3.72,3.72,0,0,0,.62,2.12.59.59,0,0,1,.13.3c0,.12-.13.23-.4.33l-1.34.57a4.93,4.93,0,0,1-1.3.46c-.2,0-.42-.31-.68-.92a5.21,5.21,0,0,1-.38-2,4.72,4.72,0,0,1,2.12-4A8.63,8.63,0,0,1,18.88.16,8,8,0,0,1,24,1.83a5.32,5.32,0,0,1,2.08,4.36,7.18,7.18,0,0,1-.7,3.09A25.28,25.28,0,0,1,22,13.89Q19.36,17,16.82,19.64h9.51l-.85,4.75H23.72a2.27,2.27,0,0,0,.1-.63c0-.33-.08-.53-.25-.61a2.55,2.55,0,0,0-1-.13Z"/></g></svg>