<svg id="svg9919" xmlns="http://www.w3.org/2000/svg" viewBox="0 0 27 23"><defs><style>.cls-1{isolation:isolate;}</style></defs><title>대지 1</title><g class="cls-1"><path d="M7.86,11.21,8.24,0H19.48a22.46,22.46,0,0,1-1.22,2.68c-.31.52-.54.78-.7.78H10L9.8,8.75a6.1,6.1,0,0,1,4-1.36,7.66,7.66,0,0,1,5.14,2,6.78,6.78,0,0,1,2.27,5.42,7.34,7.34,0,0,1-2.76,6.07A10.16,10.16,0,0,1,11.89,23a8.44,8.44,0,0,1-4.35-1,3,3,0,0,1-1.73-2.52,1.83,1.83,0,0,1,.62-1.37,2,2,0,0,1,1.41-.57c.84,0,1.55.58,2.12,1.73a2.78,2.78,0,0,0,2.49,1.81,2.5,2.5,0,0,0,2.3-1.31c.52-.86.78-2.54.78-5a8.41,8.41,0,0,0-.72-4.09,2.47,2.47,0,0,0-2.29-1.19A2.79,2.79,0,0,0,10,11.21Z"/></g></svg>