<svg id="svg9919" xmlns="http://www.w3.org/2000/svg" viewBox="0 0 27 23"><defs><style>.cls-1{isolation:isolate;}</style></defs><title>대지 1</title><g class="cls-1"><path d="M6.16,23V21.45q9-8.16,9-15a5.28,5.28,0,0,0-.82-3.11,2.52,2.52,0,0,0-2.17-1.16,2.57,2.57,0,0,0-1.9.79A2.47,2.47,0,0,0,9.45,4.8a3.71,3.71,0,0,0,.61,2.12.63.63,0,0,1,.14.3c0,.12-.14.23-.4.33l-1.35.57a4.91,4.91,0,0,1-1.29.46c-.2,0-.43-.31-.68-.92a5,5,0,0,1-.38-2,4.71,4.71,0,0,1,2.11-4A8.65,8.65,0,0,1,13.45.16,8,8,0,0,1,18.6,1.83a5.34,5.34,0,0,1,2.09,4.36A7.19,7.19,0,0,1,20,9.28a24.79,24.79,0,0,1-3.38,4.61Q13.93,17,11.39,19.64H20.9l-.84,4.75H18.3a2.71,2.71,0,0,0,.1-.63c0-.33-.09-.53-.25-.61a2.65,2.65,0,0,0-1-.13Z"/></g></svg>