<svg id="svg9919" xmlns="http://www.w3.org/2000/svg" viewBox="0 0 27 23"><title>대지 1</title><path d="M15.54,14.09a4.84,4.84,0,0,1-1.38.65A5.21,5.21,0,0,1,12.6,15,6.76,6.76,0,0,1,7.76,13a7,7,0,0,1-2-5.25A7.09,7.09,0,0,1,8.12,2a8.1,8.1,0,0,1,5.33-2A7.09,7.09,0,0,1,19,2.55q2.21,2.55,2.21,7.53,0,6-2.88,9.62a9.14,9.14,0,0,1-7.53,3.64,6.27,6.27,0,0,1-3.42-.77,2.23,2.23,0,0,1-1.16-1.88,1.68,1.68,0,0,1,.57-1.28,1.83,1.83,0,0,1,1.32-.53,1.91,1.91,0,0,1,1.11.31,5.21,5.21,0,0,1,1.07,1.16,2.17,2.17,0,0,0,1.81,1,2.48,2.48,0,0,0,2.26-1.61A16.81,16.81,0,0,0,15.54,14.09ZM11.33,7.7a11,11,0,0,0,.53,4.1A1.79,1.79,0,0,0,13.6,13a1.82,1.82,0,0,0,1.74-1.05,8.71,8.71,0,0,0,.55-3.71,13.64,13.64,0,0,0-.61-5.05,1.87,1.87,0,0,0-3-.84,2.44,2.44,0,0,0-.77,1.45A25,25,0,0,0,11.33,7.7Z"/></svg>