<?xml version="1.0" encoding="utf-8"?>
<!-- Generator: Adobe Illustrator 25.2.0, SVG Export Plug-In . SVG Version: 6.00 Build 0)  -->
<svg version="1.1" id="레이어_1" xmlns="http://www.w3.org/2000/svg" xmlns:xlink="http://www.w3.org/1999/xlink" x="0px"
	 y="0px" viewBox="0 0 13 20" style="enable-background:new 0 0 13 20;" xml:space="preserve">
<g id="레이어_2_1_">
	<g id="레이어_1-2">
		<path d="M0,3.8C0,4.3,0,4.8,0.1,5.4c0.2,0.7,0.5,1.4,0.9,2.1c0.6,0.8,1.3,1.5,2.1,2.1c0.7,0.5,1.3,0.9,1.9,1.3
			C3.5,13.7,1.5,17.2,0,20h1.8c1.6-2.7,3.3-5.9,4.7-8.3c0.6,0.3,1.1,0.7,1.6,1.1c0.5,0.4,0.9,0.9,1.3,1.3c0.4,0.5,0.7,1.1,1,1.7
			c0.4,0.9,0.3,2-0.2,2.8C9.8,19,9.3,19.2,8.8,19c-0.5-0.1-0.8-0.5-1-0.9c0.1-0.2,0.4-0.2,0.6-0.6c0.3-0.5,0.5-1.1,0.4-1.7
			c-0.1-0.5-0.4-1-0.8-1.3c-0.3-0.2-0.6-0.2-0.9-0.2c-0.3,0-0.6,0-0.9,0.1c-0.2,0.2-0.4,0.4-0.6,0.7c-0.1,0.3-0.2,0.7-0.2,1
			c0,0.6,0.2,1.2,0.5,1.8c0.7,1.3,2.1,2.1,3.6,2c0.9-0.1,1.7-0.5,2.3-1.1c0.7-0.7,1.1-1.6,1.2-2.6c0.1-0.5,0-1.1-0.1-1.6
			c-0.1-0.4-0.2-0.8-0.4-1.2c-0.3-0.7-0.8-1.4-1.4-1.9c-0.4-0.4-0.9-0.8-1.3-1.2C9.2,9.9,8.5,9.6,7.8,9.2C9.5,6.3,11.4,2.8,13,0
			h-1.8C9.6,2.7,7.8,5.9,6.5,8.3C5.9,8,5.3,7.7,4.9,7.3C4.4,6.9,3.9,6.4,3.5,5.9c-0.4-0.5-0.8-1.1-1-1.8C2.4,3.8,2.3,3.4,2.3,2.9
			C2.1,2.3,2.3,1.7,2.8,1.2c0.4-0.4,0.9-0.5,1.4-0.3c0.5,0.1,0.9,0.4,1,0.9C5,2.1,4.8,2.1,4.6,2.4C4.3,2.9,4.1,3.5,4.2,4.1
			c0.1,0.5,0.4,1,0.8,1.3c0.3,0.2,0.6,0.2,0.9,0.2c0.3,0,0.6,0,0.8-0.1C7,5.3,7.2,5.1,7.4,4.8c0.1-0.4,0.2-0.7,0.2-1.1
			C7.5,3.1,7.3,2.5,7,2C6.7,1.4,6.3,1,5.9,0.6c-0.3-0.2-0.7-0.4-1-0.5C4.3,0,3.7,0,3.2,0.1C2.8,0.1,2.5,0.2,2.1,0.4
			C1.8,0.6,1.4,0.8,1.2,1.2C0.5,1.9,0.1,2.8,0,3.8z M9.8,8c0,0.4,0.2,0.7,0.5,0.9C10.7,9,11,9,11.3,8.8c0.2-0.2,0.3-0.4,0.3-0.7
			c0-0.4-0.3-0.8-0.7-0.9c-0.3-0.1-0.6,0-0.8,0.2C9.9,7.5,9.8,7.8,9.8,8z M1.6,12.5C1.8,12.8,2.1,13,2.4,13c0.4,0,0.7-0.2,0.8-0.5
			c0.2-0.3,0.1-0.8-0.2-1c-0.2-0.3-0.7-0.4-1-0.2c-0.3,0-0.4,0.3-0.5,0.5C1.4,12,1.4,12.3,1.6,12.5z"/>
	</g>
</g>
</svg>
