<?xml version="1.0" encoding="utf-8"?>
<!-- Generator: Adobe Illustrator 24.0.1, SVG Export Plug-In . SVG Version: 6.00 Build 0)  -->
<svg version="1.1" id="svg1437" xmlns:svg="http://www.w3.org/2000/svg"
	 xmlns="http://www.w3.org/2000/svg" xmlns:xlink="http://www.w3.org/1999/xlink" x="0px" y="0px" viewBox="0 0 18 10"
	 style="enable-background:new 0 0 18 10;" xml:space="preserve">
<style type="text/css">
	.st0{opacity:0.9;enable-background:new    ;}
</style>
<path id="path3937" class="st0" d="M6.5,0C2.9,0.2,0,2.3,0,5c0,2.8,3.1,5,7,5s7-2.2,7-5s-3.1-5-7-5C6.9,0,6.7,0,6.5,0z M5.4,1
	c1-0.2,2.2,0.4,3.2,1.6c1.5,1.8,2.1,4.2,1.2,5.5l0,0C8.9,9.3,6.9,9,5.3,7.2C3.7,5.5,3.3,3,4.1,1.7C4.5,1.2,4.9,1,5.4,1z"/>
<path d="M16.6,3.3c-0.7,0-1.3-0.8-1.3-1.7c0.1-1,0.7-1.7,1.4-1.7C17.4,0,18,0.7,18,1.7S17.4,3.3,16.6,3.3L16.6,3.3z"/>
</svg>
