<?xml version="1.0" encoding="iso-8859-1"?>
<!-- Generator: Adobe Illustrator 24.0.1, SVG Export Plug-In . SVG Version: 6.00 Build 0)  -->
<svg version="1.1" id="svg1437" xmlns:svg="http://www.w3.org/2000/svg"
	 xmlns="http://www.w3.org/2000/svg" xmlns:xlink="http://www.w3.org/1999/xlink" x="0px" y="0px" viewBox="0 0 18 45"
	 style="enable-background:new 0 0 18 45;" xml:space="preserve">
<path id="path3937" style="opacity:0.9;enable-background:new    ;" d="M6.5,0.1C2.9,0.3,0,2.4,0,5.1c0,2.8,3.1,5,7,5s7-2.2,7-5
	s-3.1-5-7-5C6.9,0.1,6.7,0.1,6.5,0.1z M5.4,1.1c1-0.2,2.2,0.4,3.2,1.6c1.5,1.8,2.1,4.2,1.2,5.5l0,0C8.9,9.4,6.9,9.1,5.3,7.3
	c-1.6-1.7-2-4.2-1.2-5.5C4.5,1.3,4.9,1.1,5.4,1.1z"/>
<path d="M16.6,3.4c-0.7,0-1.3-0.8-1.3-1.7C15.4,0.7,16,0,16.7,0C17.4,0.1,18,0.8,18,1.8S17.4,3.4,16.6,3.4L16.6,3.4z"/>
</svg>
