<?xml version="1.0" encoding="iso-8859-1"?>
<!-- Generator: Adobe Illustrator 24.0.1, SVG Export Plug-In . SVG Version: 6.00 Build 0)  -->
<svg version="1.1" id="svg1437" xmlns:svg="http://www.w3.org/2000/svg"
	 xmlns="http://www.w3.org/2000/svg" xmlns:xlink="http://www.w3.org/1999/xlink" x="0px" y="0px" viewBox="0 0 17 45"
	 style="enable-background:new 0 0 17 45;" xml:space="preserve">
<path id="path3937" style="opacity:0.9;enable-background:new    ;" d="M9.1,33c-4,0.24-7.1,2.76-7.1,6c0,3.36,3.4,6,7.5,6
	s7.5-2.64,7.5-6c0-3.36-3.4-6-7.5-6C9.4,33,9.2,33,9.1,33z M7.8,34.2c1.1-0.24,2.3,0.48,3.4,1.92c1.6,2.16,2.2,5.04,1.3,6.6l0,0
	c-1,1.44-3.1,1.08-4.8-1.08c-1.6-2.04-2.2-5.04-1.2-6.6C6.8,34.44,7.3,34.2,7.8,34.2z"/>
</svg>
