<?xml version="1.0" encoding="utf-8"?>
<!-- Generator: Adobe Illustrator 24.0.1, SVG Export Plug-In . SVG Version: 6.00 Build 0)  -->
<svg version="1.1" id="svg1463" xmlns:svg="http://www.w3.org/2000/svg"
	 xmlns="http://www.w3.org/2000/svg" xmlns:xlink="http://www.w3.org/1999/xlink" x="0px" y="0px" viewBox="0 0 15 45"
	 style="enable-background:new 0 0 15 45;" xml:space="preserve">
<style type="text/css">
	.st0{opacity:0.9;fill-rule:evenodd;clip-rule:evenodd;enable-background:new    ;}
	.st1{fill:none;stroke:#000000;stroke-width:1.5;}
</style>
<g id="g10997" transform="matrix(-1,0,0,-1,247.8306,258.8548)">
	<path id="path10999" class="st0" d="M243.3,257.5c3.5-2,5.4-5.6,4.2-8.3c-1.2-2.9-5.4-3.7-9.4-1.8c-4,1.9-6.2,5.8-4.9,8.6
		s5.4,3.7,9.4,1.8C242.8,257.7,243,257.6,243.3,257.5z M242.1,255c-0.2,0.1-0.5,0.2-0.8,0.4c-3.4,1.6-6.6,1.7-7.3,0.2s1.6-4,4.9-5.7
		c3.4-1.6,6.6-1.7,7.3-0.2C246.9,251.1,245.1,253.4,242.1,255z"/>
	<path id="path11001" class="st1" d="M247,250.6v-36.7"/>
</g>
</svg>
