<?xml version="1.0" encoding="iso-8859-1"?>
<!-- Generator: Adobe Illustrator 24.0.1, SVG Export Plug-In . SVG Version: 6.00 Build 0)  -->
<svg version="1.1" id="svg1552" xmlns:svg="http://www.w3.org/2000/svg"
	 xmlns="http://www.w3.org/2000/svg" xmlns:xlink="http://www.w3.org/1999/xlink" x="0px" y="0px" viewBox="0 0 17 45"
	 style="enable-background:new 0 0 17 45;" xml:space="preserve">
<g id="g12024" transform="translate(-461.4671,-174.402)">
	<path id="path11141" style="opacity:0.9;fill-rule:evenodd;clip-rule:evenodd;enable-background:new    ;" d="M468,175.8
		c-3.5,2-5.4,5.6-4.2,8.3c1.2,2.9,5.4,3.7,9.4,1.8s6.2-5.8,4.9-8.6c-1.2-2.9-5.4-3.7-9.4-1.8C468.5,175.5,468.3,175.6,468,175.8z"/>
	<path id="path11143" style="fill:none;stroke:#000000;stroke-width:1.5;" d="M464.3,182.7v36.7"/>
	<path id="path12022" style="fill-rule:evenodd;clip-rule:evenodd;" d="M464.3,218.4c-0.6-6.9,5-9.4,7.7-12.6c2.6-3,3.6-6.5,3.4-9.8
		c0-0.9-0.3-4.7-2.7-8.5c3.3,9.6,0.2,13.4-2.7,16.5C466.4,207.6,463.7,211.1,464.3,218.4z"/>
</g>
</svg>
