<?xml version="1.0" encoding="utf-8"?>
<!-- Generator: Adobe Illustrator 24.0.1, SVG Export Plug-In . SVG Version: 6.00 Build 0)  -->
<svg version="1.1"
	 id="svg9919" xmlns:cc="http://creativecommons.org/ns#" xmlns:dc="http://purl.org/dc/elements/1.1/" xmlns:inkscape="http://www.inkscape.org/namespaces/inkscape" xmlns:rdf="http://www.w3.org/1999/02/22-rdf-syntax-ns#" xmlns:sodipodi="http://sodipodi.sourceforge.net/DTD/sodipodi-0.dtd" xmlns:svg="http://www.w3.org/2000/svg"
	 xmlns="http://www.w3.org/2000/svg" xmlns:xlink="http://www.w3.org/1999/xlink" x="0px" y="0px" viewBox="0 0 7 18"
	 style="enable-background:new 0 0 7 18;" xml:space="preserve">
<path id="path10439" d="M0,0h0.7v10.3C1.6,10,2.8,9.6,3.9,9.6c2,0,3.2,1,3.1,2.2c0,1.6-4.1,4.4-7,6.1c0.2-0.6,0.4-1.1,0.7-1.7
	c1.4-0.9,2.9-2.2,3.3-3.1c0.2-0.4,0.4-0.9,0.4-1.3c0-0.4,0-0.8-0.4-1c-0.2-0.2-0.6-0.3-1.3-0.3c-0.7,0-1.6,0.5-2,1v4.8L0,18V0z"/>
</svg>
