<?xml version="1.0" encoding="utf-8"?>
<!-- Generator: Adobe Illustrator 24.0.1, SVG Export Plug-In . SVG Version: 6.00 Build 0)  -->
<svg version="1.1"
	 id="svg9919" xmlnsCc="http://creativecommons.org/ns#" xmlnsDc="http://purl.org/dc/elements/1.1/" xmlnsInkscape="http://www.inkscape.org/namespaces/inkscape" xmlnsRdf="http://www.w3.org/1999/02/22-rdf-syntax-ns#" xmlnsSodipodi="http://sodipodi.sourceforge.net/DTD/sodipodi-0.dtd" xmlnsSvg="http://www.w3.org/2000/svg"
	 xmlns="http://www.w3.org/2000/svg" xmlnsXlink="http://www.w3.org/1999/xlink" x="0px" y="0px" viewBox="0 0 8 33.2"
	 xmlSpace="preserve">
<path stroke-width="0px" id="path10439" d="M0,0h0.8v16c1-0.5,2.4-1.1,3.7-1.1c2.3,0,3.7,1.6,3.5,3.4c0,2.5-4.7,6.8-8,9.5c0.2-0.9,0.5-1.7,0.8-2.6
	c1.6-1.4,3.3-3.4,3.8-4.8C4.8,19.8,5,19,5,18.4s0-1.2-0.5-1.6c-0.2-0.3-0.7-0.5-1.5-0.5s-1.8,0.8-2.3,1.6v7.5L0,28V0z"/>
</svg>
