<svg xmlns="http://www.w3.org/2000/svg" viewBox="0 0 24.95 11.98"><g id="레이어_2" data-name="레이어 2"><g id="레이어_1-2" data-name="레이어 1"><path id="path2569" d="M2.87.33,3,0H6.62a8.1,8.1,0,0,1,3.43.55,4.14,4.14,0,0,1,1.78,1.76,5.06,5.06,0,0,1,.67,2.55,6.83,6.83,0,0,1-.39,2.28,6.34,6.34,0,0,1-.87,1.77,7.86,7.86,0,0,1-1.48,1.46,6.84,6.84,0,0,1-2.18,1.19,9.67,9.67,0,0,1-2.92.38H0l.11-.33A2.61,2.61,0,0,0,1,11.49a1.08,1.08,0,0,0,.5-.4A6.07,6.07,0,0,0,2.05,9.6l2-7.22A5.34,5.34,0,0,0,4.31,1,.67.67,0,0,0,4.09.51,1.46,1.46,0,0,0,3.23.33Zm3,.33L3.38,9.6a6.65,6.65,0,0,0-.28,1.24.48.48,0,0,0,.09.27.43.43,0,0,0,.24.18,2.37,2.37,0,0,0,.71.08,10.49,10.49,0,0,0,2.45-.28,5,5,0,0,0,1.86-.86A5.62,5.62,0,0,0,10.1,8a8.25,8.25,0,0,0,.61-3.27,4.34,4.34,0,0,0-.94-3.07A3.57,3.57,0,0,0,7,.63Z"/><path id="path2571" d="M11.56,10.22a.81.81,0,0,1,.61.25.86.86,0,0,1-.61,1.47.8.8,0,0,1-.6-.25.87.87,0,0,1,0-1.22A.8.8,0,0,1,11.56,10.22Z"/><path id="path2573" d="M14,11.94,15,7.7h.31c0,.41-.07.75-.07,1a2.4,2.4,0,0,0,.81,1.88,3,3,0,0,0,2.1.73A2.39,2.39,0,0,0,20,10.65a2.25,2.25,0,0,0,.62-1.56A2,2,0,0,0,20.35,8,17.12,17.12,0,0,0,18,5.58a7.57,7.57,0,0,1-1.17-1.25A2.62,2.62,0,0,1,17.42.85,3.64,3.64,0,0,1,19.92,0a5.1,5.1,0,0,1,1,.09,8.17,8.17,0,0,1,1,.34l.59.21a1.29,1.29,0,0,0,.29,0,.88.88,0,0,0,.46-.13A2.11,2.11,0,0,0,23.73,0h.35l-1,3.79h-.31c0-.34,0-.61,0-.82a2.1,2.1,0,0,0-.73-1.66A2.82,2.82,0,0,0,20.16.66a2.3,2.3,0,0,0-1.55.51A1.53,1.53,0,0,0,18,2.36a1.9,1.9,0,0,0,.38,1.13,13.77,13.77,0,0,0,1.75,1.74,8.88,8.88,0,0,1,1.79,1.89,2.71,2.71,0,0,1,.41,1.44,3.14,3.14,0,0,1-.51,1.68,3.21,3.21,0,0,1-1.44,1.25,4.66,4.66,0,0,1-2.05.45,5.56,5.56,0,0,1-1-.09,13,13,0,0,1-1.53-.46,2,2,0,0,0-.6-.12c-.36,0-.64.22-.85.67Z"/><path id="path2575" d="M24.09,10.26a.79.79,0,0,1,.6.25.85.85,0,0,1,0,1.22.8.8,0,0,1-.6.25.82.82,0,0,1-.61-.25.9.9,0,0,1,0-1.22A.82.82,0,0,1,24.09,10.26Z"/></g></g></svg>