<svg id="svg9919" xmlns="http://www.w3.org/2000/svg" viewBox="0 0 27 23"><defs><style>.cls-1{isolation:isolate;}</style></defs><title>대지 1</title><g class="cls-1"><path d="M11.12,11A6.94,6.94,0,0,1,7.4,9.17,4.69,4.69,0,0,1,6.15,5.79,5,5,0,0,1,8.22,1.5,8.62,8.62,0,0,1,13.41,0a8.8,8.8,0,0,1,5.4,1.52,5,5,0,0,1,2,4.26,4.71,4.71,0,0,1-1.19,3.28A7.25,7.25,0,0,1,16.1,11a6.68,6.68,0,0,1,4,1.9,5.7,5.7,0,0,1,1.34,4,5.76,5.76,0,0,1-2.27,4.87,8.7,8.7,0,0,1-5.47,1.73A9.61,9.61,0,0,1,7.85,21.8a5.67,5.67,0,0,1-2.28-4.87A6.13,6.13,0,0,1,6.8,13.09,6.5,6.5,0,0,1,11.12,11Zm0,5.45a11.3,11.3,0,0,0,.5,4.14,1.94,1.94,0,0,0,1.94,1.05,2.09,2.09,0,0,0,1.78-.84Q16,20,16,17c0-2.24-.21-3.63-.62-4.16a2.27,2.27,0,0,0-1.89-.8,1.88,1.88,0,0,0-1.87,1A8.76,8.76,0,0,0,11.1,16.44Zm.32-10.85a8.9,8.9,0,0,0,.49,3.77,1.7,1.7,0,0,0,1.61.83,1.61,1.61,0,0,0,1.59-1,9.94,9.94,0,0,0,.46-3.69A5.32,5.32,0,0,0,15,2.59a1.81,1.81,0,0,0-1.53-.73,1.74,1.74,0,0,0-1.57.73A6,6,0,0,0,11.42,5.59Z"/></g></svg>