<?xml version="1.0" encoding="utf-8"?>
<!-- Generator: Adobe Illustrator 24.0.1, SVG Export Plug-In . SVG Version: 6.00 Build 0)  -->
<svg version="1.1"
	 id="svg2" xmlns:cc="http://creativecommons.org/ns#" xmlns:dc="http://purl.org/dc/elements/1.1/" xmlns:inkscape="http://www.inkscape.org/namespaces/inkscape" xmlns:rdf="http://www.w3.org/1999/02/22-rdf-syntax-ns#" xmlns:sodipodi="http://sodipodi.sourceforge.net/DTD/sodipodi-0.dtd" xmlns:svg="http://www.w3.org/2000/svg"
	 xmlns="http://www.w3.org/2000/svg" xmlns:xlink="http://www.w3.org/1999/xlink" x="0px" y="0px" viewBox="0 0 24 65"
	 style="enable-background:new 0 0 24 65;" xml:space="preserve">
<path id="path4149_14_" inkscape:connector-curvature="0" d="M2.6,24.9v-6.8l2.7-0.8v6.8L2.6,24.9L2.6,24.9z M8,23.2l-1.8,0.6v-7
	L8,16.4v-2.8l-1.8,0.5v-7H5.4v7.3l-2.7,0.8V8.3H1.8v7.2L0,16.1v2.8l1.8-0.6v6.8L0,25.7v2.8l1.8-0.6v7.2h0.8v-7.3L5.4,27v6.8h0.8v-7
	L8,26.2V23.2L8,23.2z"/>
<path id="path4149_11_" inkscape:connector-curvature="0" d="M10.6,42.8V36l2.7-0.8V42L10.6,42.8L10.6,42.8z M16,41.1l-1.8,0.6v-7
	l1.8-0.5v-2.8l-1.8,0.5v-7h-0.8v7.3L10.6,33v-6.8H9.8v7.2L8,33.9v2.8l1.8-0.6V43L8,43.6v2.8l1.8-0.6v7.2h0.8v-7.3l2.7-0.8v6.8h0.8
	v-7l1.8-0.6V41.1L16,41.1z"/>
<path id="path4149_2_" inkscape:connector-curvature="0" d="M18.6,18.8V12l2.7-0.8v6.8L18.6,18.8L18.6,18.8z M24,17.1l-1.8,0.6v-7
	l1.8-0.5V7.5L22.2,8V1h-0.8v7.3L18.6,9V2.2h-0.8v7.2L16,10v2.8l1.8-0.6V19L16,19.6v2.8l1.8-0.6V29h0.8v-7.3l2.7-0.8v6.8h0.8v-7
	l1.8-0.6V17.1L24,17.1z"/>
</svg>
