<?xml version="1.0" encoding="utf-8"?>
<!-- Generator: Adobe Illustrator 24.0.1, SVG Export Plug-In . SVG Version: 6.00 Build 0)  -->
<svg version="1.1"
	 id="svg2" xmlns:cc="http://creativecommons.org/ns#" xmlns:dc="http://purl.org/dc/elements/1.1/" xmlns:inkscape="http://www.inkscape.org/namespaces/inkscape" xmlns:rdf="http://www.w3.org/1999/02/22-rdf-syntax-ns#" xmlns:sodipodi="http://sodipodi.sourceforge.net/DTD/sodipodi-0.dtd" xmlns:svg="http://www.w3.org/2000/svg"
	 xmlns="http://www.w3.org/2000/svg" xmlns:xlink="http://www.w3.org/1999/xlink" x="0px" y="0px" viewBox="0 0 56 65"
	 style="enable-background:new 0 0 56 65;" xml:space="preserve">
<path id="path4149_14_" inkscape:connector-curvature="0" d="M2.6,24.9v-6.8l2.7-0.8v6.8L2.6,24.9L2.6,24.9z M8,23.2l-1.8,0.6v-7
	L8,16.4v-2.8l-1.8,0.5v-7H5.4v7.3l-2.7,0.8V8.3H1.8v7.2L0,16.1v2.8l1.8-0.6v6.8L0,25.7v2.8l1.8-0.6v7.2h0.8v-7.3L5.4,27v6.8h0.8v-7
	L8,26.2V23.2L8,23.2z"/>
<path id="path4149_11_" inkscape:connector-curvature="0" d="M10.6,42.8V36l2.7-0.8V42L10.6,42.8L10.6,42.8z M16,41.1l-1.8,0.6v-7
	l1.8-0.5v-2.8l-1.8,0.5v-7h-0.8v7.3L10.6,33v-6.8H9.8v7.2L8,33.9v2.8l1.8-0.6V43L8,43.6v2.8l1.8-0.6v7.2h0.8v-7.3l2.7-0.8v6.8h0.8
	v-7l1.8-0.6V41.1L16,41.1z"/>
<path id="path4149_6_" inkscape:connector-curvature="0" d="M50.6,48.8V42l2.7-0.8V48L50.6,48.8L50.6,48.8z M56,47.1l-1.8,0.6v-7
	l1.8-0.5v-2.8l-1.8,0.5v-7h-0.8v7.3L50.6,39v-6.8h-0.8v7.2L48,39.9v2.8l1.8-0.6V49L48,49.6v2.8l1.8-0.6v7.2h0.8v-7.3l2.7-0.8v6.8
	h0.8v-7l1.8-0.6V47.1L56,47.1z"/>
<path id="path4149_5_" inkscape:connector-curvature="0" d="M42.6,30.4v-6.8l2.7-0.8v6.8L42.6,30.4L42.6,30.4z M48,28.7l-1.8,0.6v-7
	l1.8-0.5V19l-1.8,0.5v-7h-0.8v7.3l-2.7,0.8v-6.8h-0.8v7.2L40,21.5v2.8l1.8-0.6v6.8L40,31.1v2.8l1.8-0.6v7.2h0.8v-7.3l2.7-0.8v6.8
	h0.8v-7l1.8-0.6V28.7L48,28.7z"/>
<path id="path4149_3_" inkscape:connector-curvature="0" d="M34.6,54.9V48l2.7-0.8v6.8L34.6,54.9L34.6,54.9z M40,53.2l-1.8,0.6v-7
	l1.8-0.5v-2.8L38.2,44v-7h-0.8v7.3l-2.7,0.8v-6.8h-0.8v7.2L32,46v2.8l1.8-0.6V55L32,55.7v2.8l1.8-0.6V65h0.8v-7.3l2.7-0.8v6.8h0.8
	v-7l1.8-0.6V53.2L40,53.2z"/>
<path id="path4149_2_" inkscape:connector-curvature="0" d="M18.6,18.8V12l2.7-0.8v6.8L18.6,18.8L18.6,18.8z M24,17.1l-1.8,0.6v-7
	l1.8-0.5V7.5L22.2,8V1h-0.8v7.3L18.6,9V2.2h-0.8v7.2L16,10v2.8l1.8-0.6V19L16,19.6v2.8l1.8-0.6V29h0.8v-7.3l2.7-0.8v6.8h0.8v-7
	l1.8-0.6V17.1L24,17.1z"/>
<path id="path4149_1_" inkscape:connector-curvature="0" d="M26.6,36.8V30l2.7-0.8v6.8L26.6,36.8L26.6,36.8z M32,35.1l-1.8,0.6v-7
	l1.8-0.5v-2.8l-1.8,0.5v-7h-0.8v7.3L26.6,27v-6.8h-0.8v7.2L24,28v2.8l1.8-0.6V37L24,37.6v2.8l1.8-0.6v7.2h0.8v-7.3l2.7-0.8v6.8h0.8
	v-7l1.8-0.6V35.1L32,35.1z"/>
</svg>
