<?xml version="1.0" encoding="utf-8"?>
<!-- Generator: Adobe Illustrator 24.0.1, SVG Export Plug-In . SVG Version: 6.00 Build 0)  -->
<svg version="1.1" id="svg1622" xmlns:svg="http://www.w3.org/2000/svg"
	 xmlns="http://www.w3.org/2000/svg" xmlns:xlink="http://www.w3.org/1999/xlink" x="0px" y="0px" viewBox="0 0 25 45"
	 style="enable-background:new 0 0 25 45;" xml:space="preserve">
<style type="text/css">
	.st0{opacity:0.9;fill-rule:evenodd;clip-rule:evenodd;enable-background:new    ;}
	.st1{fill:none;stroke:#000000;stroke-width:1.5;}
	.st2{fill-rule:evenodd;clip-rule:evenodd;}
</style>
<g id="g16506" transform="translate(-519.7849,-288.4558)">
	<path id="path16453" class="st0" d="M524.2,324c-3.4,1.7-5.2,4.8-4.1,7.1c1.2,2.5,5.3,3.1,9.1,1.5c3.9-1.6,6-4.9,4.8-7.4
		c-1.2-2.5-5.3-3.2-9.1-1.5C524.7,323.8,524.5,323.9,524.2,324z"/>
	<path id="path16455" class="st1" d="M533.9,326.6v-38.1"/>
	<path id="path16457" class="st2" d="M533.9,296.2c-0.6,5.9,4.9,8,7.5,10.7c2.5,2.6,3.5,5.6,3.4,8.4c0,0.7-0.2,4-2.6,7.2
		c3.2-8.1,0.2-11.4-2.7-14C536,305.4,533.4,302.4,533.9,296.2z"/>
	<path id="path16462" class="st2" d="M533.1,300.7c-0.6,5.9,4.9,8,7.5,10.7c2.5,2.6,3.5,5.6,3.4,8.4c0,0.7-0.2,4-2.6,7.2
		c3.2-8.1,0.2-11.4-2.7-14C535.2,309.8,532.6,306.9,533.1,300.7z"/>
	<path id="path16504" class="st2" d="M533.7,289.8c-0.6,5.9,4.9,8,7.5,10.7c2.5,2.6,3.5,5.6,3.4,8.4c0,0.7-0.2,4-2.6,7.2
		c3.2-8.1,0.2-11.4-2.7-14C535.7,298.9,533.1,296,533.7,289.8z"/>
</g>
<path d="M18.8,38.4c-1.1,0-2-0.9-2-2c0-1.1,0.9-2,2.1-1.9c1.1,0,2,0.9,2,2c0,1.1-0.9,1.9-2,1.9H18.8z"/>
</svg>
