<?xml version="1.0" encoding="utf-8"?>
<!-- Generator: Adobe Illustrator 24.0.1, SVG Export Plug-In . SVG Version: 6.00 Build 0)  -->
<svg version="1.1" id="svg1533" xmlns:svg="http://www.w3.org/2000/svg"
	 xmlns="http://www.w3.org/2000/svg" xmlns:xlink="http://www.w3.org/1999/xlink" x="0px" y="0px" viewBox="0 0 25 45"
	 style="enable-background:new 0 0 25 45;" xml:space="preserve">
<style type="text/css">
	.st0{opacity:0.9;fill-rule:evenodd;clip-rule:evenodd;enable-background:new    ;}
	.st1{fill:none;stroke:#000000;stroke-width:1.5;}
	.st2{fill-rule:evenodd;clip-rule:evenodd;}
</style>
<g id="g12994" transform="translate(-427.1495,-34.28441)">
	<path id="path12112" class="st0" d="M431.6,68.1c-3.4,2-5.2,5.6-4.1,8.3c1.2,2.9,5.3,3.7,9.1,1.8c3.9-1.9,6-5.8,4.8-8.7
		c-1.2-2.9-5.3-3.7-9.1-1.8C432.1,67.9,431.8,68,431.6,68.1z"/>
	<path id="path12114" class="st1" d="M441.3,71.1V34.3"/>
	<path id="path12116" class="st2" d="M441.2,35.3c-0.6,6.9,4.9,9.4,7.5,12.6c2.5,3.1,3.5,6.6,3.4,9.9c0,0.9-0.2,4.7-2.6,8.5
		c3.2-9.6,0.2-13.5-2.7-16.5C443.3,46.1,440.7,42.6,441.2,35.3z"/>
</g>
<path d="M18.8,36.4c-1.1,0-2-0.9-2-2c0-1.1,0.9-2,2.1-1.9c1.1,0,2,0.9,2,2c0,1.1-0.9,1.9-2,1.9H18.8z"/>
</svg>
