<svg id="svg9919" xmlns="http://www.w3.org/2000/svg" viewBox="0 0 27 23"><defs><style>.cls-1{isolation:isolate;}</style></defs><title>대지 1</title><g class="cls-1"><path d="M15.94,9.6a5.43,5.43,0,0,1,3.72,1.48,5.23,5.23,0,0,1,1.54,4,7.26,7.26,0,0,1-2.82,6,10.56,10.56,0,0,1-6.82,2.26,8.18,8.18,0,0,1-4.14-.95,2.84,2.84,0,0,1-1.62-2.5,2,2,0,0,1,.67-1.55,2.16,2.16,0,0,1,1.47-.59,1.75,1.75,0,0,1,1.3.5,4.57,4.57,0,0,1,.94,1.62,2,2,0,0,0,1.93,1.58,3.12,3.12,0,0,0,2.54-1.19c.65-.79,1-2.22,1-4.31a13.81,13.81,0,0,0-.29-3.27A1.34,1.34,0,0,0,14,11.54a2.17,2.17,0,0,0-1.5.76,1.69,1.69,0,0,1-1.09.62.79.79,0,0,1-.67-.37,1.15,1.15,0,0,1-.26-.7,1,1,0,0,1,.26-.68,7.5,7.5,0,0,1,1.2-.91q3.58-2.38,3.59-5.21a3.05,3.05,0,0,0-.77-2.25A2.47,2.47,0,0,0,12.87,2a2.8,2.8,0,0,0-1.81.65,2,2,0,0,0-.81,1.57,2.16,2.16,0,0,0,.63,1.48.69.69,0,0,1,.21.41c0,.1-.47.36-1.42.77a6.63,6.63,0,0,1-1.78.61c-.34,0-.62-.28-.84-.83a4.12,4.12,0,0,1-.32-1.53A4.33,4.33,0,0,1,9,1.49,9.56,9.56,0,0,1,14.3,0a8.59,8.59,0,0,1,4.45,1.11,3.4,3.4,0,0,1,1.89,3,4.4,4.4,0,0,1-1.42,3.14A11.32,11.32,0,0,1,15.94,9.6Z"/></g></svg>