<svg id="svg9919" xmlns="http://www.w3.org/2000/svg" viewBox="0 0 27 23"><defs><style>.cls-1{isolation:isolate;}</style></defs><title>대지 1</title><g class="cls-1"><path d="M11.42,9.14a6.28,6.28,0,0,1,3.07-.78,6.87,6.87,0,0,1,4.75,1.82,6.74,6.74,0,0,1,2,5.25,7.09,7.09,0,0,1-2.37,5.76,8,8,0,0,1-5.21,2,7.27,7.27,0,0,1-5.61-2.56q-2.3-2.55-2.29-7.28A19.21,19.21,0,0,1,6.92,6.64a10.06,10.06,0,0,1,3.75-5A9.51,9.51,0,0,1,16.23-.17,6.24,6.24,0,0,1,19.45.6a2.23,2.23,0,0,1,1.3,1.89,1.93,1.93,0,0,1-.56,1.33,1.77,1.77,0,0,1-1.37.61c-.72,0-1.43-.51-2.12-1.53a2.21,2.21,0,0,0-1.86-1.06c-1,0-1.72.61-2.29,1.82A16.42,16.42,0,0,0,11.42,9.14Zm-.3,6.53a11.14,11.14,0,0,0,.6,4.3,1.94,1.94,0,0,0,1.87,1.32,1.7,1.7,0,0,0,1.62-1,10,10,0,0,0,.51-3.91c0-2.55-.21-4.21-.61-5a1.9,1.9,0,0,0-1.75-1.14,1.8,1.8,0,0,0-1.31.55,2.84,2.84,0,0,0-.74,1.44A19.43,19.43,0,0,0,11.12,15.67Z"/></g></svg>