<svg id="svg9919" xmlns="http://www.w3.org/2000/svg" viewBox="0 0 6 9"><title>대지 1</title><path d="M.19,9v-.6Q3.63,5.27,3.62,2.66a2,2,0,0,0-.31-1.19A1,1,0,0,0,2.48,1a1,1,0,0,0-.73.3,1,1,0,0,0-.3.69,1.41,1.41,0,0,0,.24.82A.31.31,0,0,1,1.74,3s-.05.09-.16.13l-.51.21a2,2,0,0,1-.49.18c-.08,0-.17-.11-.27-.35a2.1,2.1,0,0,1-.14-.76A1.81,1.81,0,0,1,1,.84,3.34,3.34,0,0,1,3,.25,3.09,3.09,0,0,1,5,.89a2,2,0,0,1,.8,1.67,2.75,2.75,0,0,1-.27,1.18A9.44,9.44,0,0,1,4.19,5.5c-.68.79-1.35,1.53-2,2.2H5.83L5.51,9.52H4.83a.77.77,0,0,0,0-.25c0-.12,0-.2-.09-.23A1,1,0,0,0,4.4,9Z"/></svg>