<?xml version="1.0" encoding="iso-8859-1"?>
<!-- Generator: Adobe Illustrator 24.0.1, SVG Export Plug-In . SVG Version: 6.00 Build 0)  -->
<svg version="1.1" id="svg1437" xmlnsSvg="http://www.w3.org/2000/svg"
	 xmlns="http://www.w3.org/2000/svg" xmlnsXlink="http://www.w3.org/1999/xlink" x="0px" y="0px" viewBox="0 0 20 45"
	 xmlSpace="preserve">
<path id="path3937" style="opacity:0.9;enable-background:new    ;" d="M8.5,35C4.9,35.2,2,37.3,2,40c0,2.8,3.1,5,7,5s7-2.2,7-5
	s-3.1-5-7-5C8.9,35,8.7,35,8.5,35z M7.4,36c1-0.2,2.2,0.4,3.2,1.6c1.5,1.8,2.1,4.2,1.2,5.5l0,0c-0.9,1.2-2.9,0.9-4.5-0.9
	c-1.6-1.7-2-4.2-1.2-5.5C6.5,36.2,6.9,36,7.4,36z"/>
<path d="M18.6,38.3c-0.7,0-1.3-0.8-1.3-1.7c0.1-1,0.7-1.7,1.4-1.7c0.7,0.1,1.3,0.8,1.3,1.8S19.4,38.3,18.6,38.3L18.6,38.3z"/>
</svg>
