<?xml version="1.0" encoding="utf-8"?>
<!-- Generator: Adobe Illustrator 24.0.1, SVG Export Plug-In . SVG Version: 6.00 Build 0)  -->
<svg version="1.1" id="svg1437" xmlns="http://www.w3.org/2000/svg" xmlns:xlink="http://www.w3.org/1999/xlink" x="0px" y="0px"
	 viewBox="0 0 20 45" style="enable-background:new 0 0 20 45;" xml:space="preserve">
<style type="text/css">
	.st0{opacity:0.9;enable-background:new    ;}
</style>
<path id="path3937" stroke-width="0.01px" class="st0" d="M9.1,0C5.1,0.2,2,2.8,2,6c0,3.4,3.4,6,7.5,6S17,9.4,17,6s-3.4-6-7.5-6C9.4,0,9.2,0,9.1,0z
	 M7.8,1.2c1.1-0.2,2.3,0.5,3.4,1.9c1.6,2.2,2.2,5,1.3,6.6l0,0c-1,1.4-3.1,1.1-4.8-1.1c-1.6-2-2.2-5-1.2-6.6C6.8,1.4,7.3,1.2,7.8,1.2
	z"/>
<path id="path3937_1_" stroke-width="0.01px" class="st0" d="M6.5,57.3c-3.6,0.2-6.5,2.3-6.5,5c0,2.8,3.1,5,7,5s7-2.2,7-5c0-2.8-3.1-5-7-5
	C6.9,57.3,6.7,57.3,6.5,57.3z M5.4,58.3c1-0.2,2.2,0.4,3.2,1.6c1.5,1.8,2.1,4.2,1.2,5.5l0,0c-0.9,1.2-2.9,0.9-4.5-0.9
	c-1.6-1.7-2-4.2-1.2-5.5C4.5,58.5,4.9,58.3,5.4,58.3z"/>
<path stroke-width="0.01px" d="M18.4,3C17.7,3,17,2.3,17,1.5C17.1,0.6,17.8,0,18.6,0C19.3,0.1,20,0.7,20,1.6S19.3,3,18.4,3L18.4,3z"/>
</svg>
