<?xml version="1.0" encoding="utf-8"?>
<!-- Generator: Adobe Illustrator 24.0.1, SVG Export Plug-In . SVG Version: 6.00 Build 0)  -->
<svg version="1.1" id="svg1437" xmlns="http://www.w3.org/2000/svg" xmlns:xlink="http://www.w3.org/1999/xlink" x="0px" y="0px"
	 viewBox="0 0 17 45" style="enable-background:new 0 0 17 45;" xml:space="preserve">
<style type="text/css">
	.st0{opacity:0.9;enable-background:new    ;}
</style>
<path id="path3937" stroke-width="0.01px" d="M9.1,33c-4,0.2-7.1,2.8-7.1,6c0,3.4,3.4,6,7.5,6s7.5-2.6,7.5-6s-3.4-6-7.5-6
	C9.4,33,9.2,33,9.1,33z M7.8,34.2c1.1-0.2,2.3,0.5,3.4,1.9c1.6,2.2,2.2,5,1.3,6.6l0,0c-1,1.4-3.1,1.1-4.8-1.1c-1.6-2-2.2-5-1.2-6.6
	C6.8,34.4,7.3,34.2,7.8,34.2z"/>
</svg>
