<?xml version="1.0" encoding="iso-8859-1"?>
<!-- Generator: Adobe Illustrator 24.0.1, SVG Export Plug-In . SVG Version: 6.00 Build 0)  -->
<svg version="1.1" id="svg1533" xmlnsSvg="http://www.w3.org/2000/svg"
	 xmlns="http://www.w3.org/2000/svg" xmlnsXlink="http://www.w3.org/1999/xlink" x="0px" y="0px" viewBox="0 0 27 45"
	 xmlSpace="preserve">
<g id="g12994" transform="translate(-427.1495,-34.28441)">
	<path  stroke-width="0.01px" id="path12112" d="M433.6,68.1
		c-3.4,2-5.2,5.6-4.1,8.3c1.2,2.9,5.3,3.7,9.1,1.8c3.9-1.9,6-5.8,4.8-8.7c-1.2-2.9-5.3-3.7-9.1-1.8C434.1,67.9,433.8,68,433.6,68.1z
		"/>

	<path  stroke-width="0.01px" id="path12116" d="M443.2,35.3c-0.6,6.9,4.9,9.4,7.5,12.6
		c2.5,3.1,3.5,6.6,3.4,9.9c0,0.9-0.2,4.7-2.6,8.5c3.2-9.6,0.2-13.5-2.7-16.5C445.3,46.1,442.7,42.6,443.2,35.3z"/>
</g>
<path  stroke-width="0.01px" d="M20.8,36.4c-1.1,0-2-0.9-2-2s0.9-2,2.1-1.9c1.1,0,2,0.9,2,2s-0.9,1.9-2,1.9H20.8z"/>
</svg>
