<?xml version="1.0" encoding="iso-8859-1"?>
<!-- Generator: Adobe Illustrator 24.0.1, SVG Export Plug-In . SVG Version: 6.00 Build 0)  -->
<svg version="1.1" id="svg1552" xmlnsSvg="http://www.w3.org/2000/svg"
	 xmlns="http://www.w3.org/2000/svg" xmlnsXlink="http://www.w3.org/1999/xlink" x="0px" y="0px" viewBox="0 0 23 45"
	 xmlSpace="preserve">
<g id="g12024" transform="translate(-461.4671,-174.402)">
	<path  stroke-width="0.01px" id="path11141" d="M468,175.8
		c-3.5,2-5.4,5.6-4.2,8.3c1.2,2.9,5.4,3.7,9.4,1.8s6.2-5.8,4.9-8.6c-1.2-2.9-5.4-3.7-9.4-1.8C468.5,175.5,468.3,175.6,468,175.8z"/>
	<path  stroke-width="1.5px" id="path11143" d="M464.3,182.7v36.7"/>
	<path  stroke-width="0.01px" id="path12022" d="M464.3,218.4c-0.6-6.9,5-9.4,7.7-12.6c2.6-3,3.6-6.5,3.4-9.8
		c0-0.9-0.3-4.7-2.7-8.5c3.3,9.6,0.2,13.4-2.7,16.5C466.4,207.6,463.7,211.1,464.3,218.4z"/>
</g>
<path  stroke-width="0px" d="M20.9,4c-1.1,0-2-0.9-2-2c0.1-1.2,1-2,2.1-2s2,0.9,2,2s-0.9,2-2,2H20.9z"/>
</svg>
