<?xml version="1.0" encoding="iso-8859-1"?>
<!-- Generator: Adobe Illustrator 24.0.1, SVG Export Plug-In . SVG Version: 6.00 Build 0)  -->
<svg version="1.1" id="svg1572" xmlnsSvg="http://www.w3.org/2000/svg"
	 xmlns="http://www.w3.org/2000/svg" xmlnsXlink="http://www.w3.org/1999/xlink" x="0px" y="0px" viewBox="0 0 27 45"
	 xmlSpace="preserve">
<g id="g16559" transform="translate(-393.8446,-234.1771)">
	<path  stroke-width="0.01px" id="path16482" d="M400.4,268.8
		c-3.5,1.9-5.3,5.2-4.2,7.7c1.2,2.7,5.4,3.4,9.3,1.7c3.9-1.8,6.1-5.4,4.9-8c-1.2-2.7-5.4-3.4-9.3-1.7
		C400.9,268.6,400.6,268.7,400.4,268.8z"/>
	<path  stroke-width="1.5px" id="path16484" d="M410.2,271.6v-37.5"/>
	<path  stroke-width="0.01px" id="path16486" d="M409.7,234.9c-0.6,6.4,5,8.7,7.7,11.7
		c2.6,2.8,3.5,6.1,3.4,9.1c0,0.8-0.3,4.4-2.7,7.9c3.2-8.9,0.2-12.5-2.7-15.3C411.8,244.9,409.2,241.7,409.7,234.9z"/>
	<path  stroke-width="0.01px" id="path16488" d="M409.5,241c-0.6,6.4,5,8.7,7.7,11.7c2.6,2.8,3.5,6.1,3.4,9.1
		c0,0.8-0.3,4.4-2.7,7.9c3.2-8.9,0.2-12.5-2.7-15.3C411.6,251,408.9,247.8,409.5,241z"/>
</g>
</svg>
