<?xml version="1.0" encoding="iso-8859-1"?>
<!-- Generator: Adobe Illustrator 24.0.1, SVG Export Plug-In . SVG Version: 6.00 Build 0)  -->
<svg version="1.1" id="svg1437" xmlnsSvg="http://www.w3.org/2000/svg"
	 xmlns="http://www.w3.org/2000/svg" xmlnsXlink="http://www.w3.org/1999/xlink" x="0px" y="0px" viewBox="0 0 17 45"
	  xmlSpace="preserve">
<path id="path3937"  stroke-width="0.01px" style="opacity:0.9;enable-background:new    ;" d="M9.1,0C5.1,0.24,2,2.76,2,6c0,3.36,3.4,6,7.5,6S17,9.36,17,6
	s-3.4-6-7.5-6C9.4,0,9.2,0,9.1,0z M7.8,1.2c1.1-0.24,2.3,0.48,3.4,1.92c1.6,2.16,2.2,5.04,1.3,6.6l0,0c-1,1.44-3.1,1.08-4.8-1.08
	C6.1,6.6,5.5,3.6,6.5,2.04C6.8,1.44,7.3,1.2,7.8,1.2z"/>
</svg>
