<?xml version="1.0" encoding="iso-8859-1"?>
<!-- Generator: Adobe Illustrator 24.0.1, SVG Export Plug-In . SVG Version: 6.00 Build 0)  -->
<svg version="1.1" id="svg1600" xmlnsSvg="http://www.w3.org/2000/svg"
	 xmlns="http://www.w3.org/2000/svg" xmlnsXlink="http://www.w3.org/1999/xlink" x="0px" y="0px" viewBox="0 0 23 45"
	 xmlSpace="preserve">
<g id="g16526" transform="translate(-371.6918,-254.0553)">
	<path  stroke-width="0.01px" id="path16515" d="M378.2,255.3
		c-3.5,1.8-5.4,5.1-4.2,7.6c1.2,2.6,5.4,3.4,9.4,1.7c4-1.7,6.2-5.2,4.9-7.9c-1.2-2.6-5.4-3.4-9.4-1.7
		C378.7,255.1,378.5,255.2,378.2,255.3z"/>
	<path  stroke-width="1.5px" id="path16517" d="M374.5,261.4v37.7"/>
	<path  stroke-width="0.01px" id="path16519" d="M374.2,299.1c-0.6-6.3,5-8.5,7.7-11.4c2.6-2.8,3.6-6,3.4-9
		c0-0.8-0.3-4.3-2.7-7.7c3.3,8.7,0.2,12.2-2.7,15C376.4,289.3,373.7,292.4,374.2,299.1z"/>
	<path  stroke-width="0.01px" id="path16524" d="M374.1,292.1c-0.6-6.3,5-8.5,7.7-11.4c2.6-2.8,3.6-6,3.4-9
		c0-0.8-0.3-4.3-2.7-7.7c3.3,8.7,0.2,12.2-2.7,15C376.3,282.3,373.6,285.5,374.1,292.1z"/>
</g>
<path  stroke-width="0.01px" d="M20.9,4c-1.1,0-2-0.9-2-2c0.1-1.2,1-2,2.1-2s2,0.9,2,2s-0.9,2-2,2H20.9z"/>
</svg>
