<?xml version="1.0" encoding="iso-8859-1"?>
<!-- Generator: Adobe Illustrator 24.0.1, SVG Export Plug-In . SVG Version: 6.00 Build 0)  -->
<svg version="1.1" id="svg1463" xmlnsSvg="http://www.w3.org/2000/svg"
	 xmlns="http://www.w3.org/2000/svg" xmlnsXlink="http://www.w3.org/1999/xlink" x="0px" y="0px" viewBox="0 0 17 45"
	 xmlSpace="preserve">
<g id="g10997" transform="matrix(-1,0,0,-1,247.8306,258.8548)">
	<path  stroke-width="0.01px" id="path10999"  stroke-width="0.01px" style="opacity:0.9;fill-rule:evenodd;clip-rule:evenodd;enable-background:new    ;" d="M241.3,257.5
		c3.5-2,5.4-5.6,4.2-8.3c-1.2-2.9-5.4-3.7-9.4-1.8s-6.2,5.8-4.9,8.6s5.4,3.7,9.4,1.8C240.8,257.7,241,257.6,241.3,257.5z M240.1,255
		c-0.2,0.1-0.5,0.2-0.8,0.4c-3.4,1.6-6.6,1.7-7.3,0.2c-0.7-1.5,1.6-4,4.9-5.7c3.4-1.6,6.6-1.7,7.3-0.2
		C244.9,251.1,243.1,253.4,240.1,255z"/>
	<path  stroke-width="1.5px" id="path11001" style="fill:none;stroke:#000000;stroke-width:1.5;" d="M245,250.6v-36.7"/>
</g>
</svg>
