<?xml version="1.0" encoding="iso-8859-1"?>
<!-- Generator: Adobe Illustrator 24.0.1, SVG Export Plug-In . SVG Version: 6.00 Build 0)  -->
<svg version="1.1" id="svg1463" xmlnsSvg="http://www.w3.org/2000/svg"
	 xmlns="http://www.w3.org/2000/svg" xmlnsXlink="http://www.w3.org/1999/xlink" x="0px" y="0px" viewBox="0 0 23 45"
	 xmlSpace="preserve">
<g id="g10997" transform="matrix(-1,0,0,-1,247.8306,258.8548)">
	<path id="path10999" stroke-width="0.05px" d="M235.4,215.2
		c-3.5,2-5.4,5.6-4.2,8.3c1.2,2.9,5.4,3.7,9.4,1.8s6.2-5.8,4.9-8.6s-5.4-3.7-9.4-1.8C235.9,215,235.6,215.1,235.4,215.2z
		 M236.5,217.7c0.2-0.1,0.5-0.2,0.8-0.4c3.4-1.6,6.6-1.7,7.3-0.2s-1.6,4-4.9,5.7c-3.4,1.6-6.6,1.7-7.3,0.2
		C231.8,221.6,233.6,219.3,236.5,217.7z"/>
	<path id="path11001" stroke-width = "1.5px"  d="M231.6,222.1v36.7"/>
</g>
<path stroke-width = "0.1px" d="M20.9,36.5c-1.1,0-2-0.9-2-2s0.9-2,2.1-1.9c1.1,0,2,0.9,2,2s-0.9,1.9-2,1.9H20.9z"/>
</svg>
