<?xml version="1.0" encoding="iso-8859-1"?>
<!-- Generator: Adobe Illustrator 24.0.1, SVG Export Plug-In . SVG Version: 6.00 Build 0)  -->
<svg version="1.1" id="svg1463" xmlnsSvg="http://www.w3.org/2000/svg"
	 xmlns="http://www.w3.org/2000/svg" xmlnsXlink="http://www.w3.org/1999/xlink" x="0px" y="0px" viewBox="0 0 23 45"
	 xmlSpace="preserve">
<g>
	<g id="g10997" transform="matrix(-1,0,0,-1,247.8306,258.8548)">
		<path  stroke-width="0.01px" id="path10999" style="opacity:0.9;fill-rule:evenodd;clip-rule:evenodd;enable-background:new    ;" d="M241.3,257.4
			c3.5-2,5.4-5.6,4.2-8.3c-1.2-2.9-5.4-3.7-9.4-1.8s-6.2,5.7-5,8.6c1.2,2.9,5.4,3.7,9.4,1.8C240.8,257.6,241,257.5,241.3,257.4z
			 M240.1,254.9c-0.2,0.1-0.5,0.2-0.8,0.4c-3.4,1.6-6.6,1.7-7.3,0.2c-0.6-1.5,1.6-4,5-5.6s6.6-1.7,7.3-0.2
			C244.9,251,243.1,253.3,240.1,254.9z"/>
		<path  stroke-width="1.5px" id="path11001" d="M245,250.5v-36.6"/>
	</g>
	<path  stroke-width="0.01px" d="M20.9,4c-1.1,0-2-0.9-2-2c0.1-1.2,1-2,2.1-2s2,0.9,2,2s-0.9,2-2,2H20.9z"/>
</g>
</svg>
