<?xml version="1.0" encoding="iso-8859-1"?>
<!-- Generator: Adobe Illustrator 24.0.1, SVG Export Plug-In . SVG Version: 6.00 Build 0)  -->
<svg version="1.1" id="svg1622" xmlnsSvg="http://www.w3.org/2000/svg"
	 xmlns="http://www.w3.org/2000/svg" xmlnsXlink="http://www.w3.org/1999/xlink" x="0px" y="0px" viewBox="0 0 27 45"
	 xmlSpace="preserve">
<g id="g16506" transform="translate(-519.7849,-288.4558)">
	<path  stroke-width="0.01px" id="path16453" d="M526.2,324
		c-3.4,1.7-5.2,4.8-4.1,7.1c1.2,2.5,5.3,3.1,9.1,1.5c3.9-1.6,6-4.9,4.8-7.4s-5.3-3.2-9.1-1.5C526.7,323.8,526.5,323.9,526.2,324z"/>
	<path  stroke-width="1.5px" id="path16455" d="M535.9,326.6v-38.1"/>
	<path  stroke-width="0.01px" id="path16457" d="M535.9,296.2c-0.6,5.9,4.9,8,7.5,10.7
		c2.5,2.6,3.5,5.6,3.4,8.4c0,0.7-0.2,4-2.6,7.2c3.2-8.1,0.2-11.4-2.7-14C538,305.4,535.4,302.4,535.9,296.2z"/>
	<path  stroke-width="0.01px" id="path16462" d="M535.1,300.7c-0.6,5.9,4.9,8,7.5,10.7
		c2.5,2.6,3.5,5.6,3.4,8.4c0,0.7-0.2,4-2.6,7.2c3.2-8.1,0.2-11.4-2.7-14C537.2,309.8,534.6,306.9,535.1,300.7z"/>
	<path  stroke-width="0.01px" id="path16504" d="M535.7,289.8c-0.6,5.9,4.9,8,7.5,10.7
		c2.5,2.6,3.5,5.6,3.4,8.4c0,0.7-0.2,4-2.6,7.2c3.2-8.1,0.2-11.4-2.7-14C537.7,298.9,535.1,296,535.7,289.8z"/>
</g>
<path  stroke-width="0.01px" d="M20.8,38.4c-1.1,0-2-0.9-2-2s0.9-2,2.1-1.9c1.1,0,2,0.9,2,2s-0.9,1.9-2,1.9H20.8z"/>
</svg>
