<?xml version="1.0" encoding="iso-8859-1"?>
<!-- Generator: Adobe Illustrator 24.0.1, SVG Export Plug-In . SVG Version: 6.00 Build 0)  -->
<svg version="1.1" id="svg1783" xmlnsSvg="http://www.w3.org/2000/svg"
	 xmlns="http://www.w3.org/2000/svg" xmlnsXlink="http://www.w3.org/1999/xlink" x="0px" y="0px" viewBox="0 0 23 45"
	 xmlSpace="preserve">
<g id="g16548" transform="translate(-584.0404,-285.2324)">
	<path  stroke-width="0.01px" id="path16534" sd="M590.7,286.4
		c-3.5,1.7-5.3,4.8-4.2,7.1c1.2,2.5,5.4,3.2,9.3,1.5c3.9-1.6,6.1-4.9,4.9-7.4c-1.2-2.5-5.4-3.2-9.3-1.5
		C591.1,286.2,590.9,286.3,590.7,286.4z"/>
	<path  stroke-width="1.5px" id="path16536" d="M586.9,292v38.2"/>
	<path  stroke-width="0.01px" id="path16538" d="M586.7,329.6c-0.6-5.9,5-8,7.7-10.7c2.6-2.6,3.5-5.6,3.4-8.4
		c0-0.7-0.3-4-2.7-7.2c3.2,8.1,0.2,11.4-2.7,14C588.8,320.4,586.2,323.4,586.7,329.6z"/>
	<path  stroke-width="0.01px" id="path16540"  d="M586.6,322.6c-0.6-5.9,5-8,7.7-10.7c2.6-2.6,3.5-5.6,3.4-8.4
		c0-0.7-0.3-4-2.7-7.2c3.2,8.1,0.2,11.4-2.7,14C588.7,313.4,586,316.4,586.6,322.6z"/>
	<path  stroke-width="0.01px" id="path16546"  d="M586.1,316.1c-0.6-5.9,5-8,7.7-10.7c2.6-2.6,3.5-5.6,3.4-8.4
		c0-0.7-0.3-4-2.7-7.2c3.2,8.1,0.2,11.4-2.7,14C588.2,307,585.6,310,586.1,316.1z"/>
</g>
<path  stroke-width="0.01px" d="M20.9,4c-1.1,0-2-0.9-2-2c0.1-1.2,1-2,2.1-2s2,0.9,2,2s-0.9,2-2,2H20.9z"/>
</svg>
