<?xml version="1.0" encoding="utf-8"?>
<!-- Generator: Adobe Illustrator 24.0.1, SVG Export Plug-In . SVG Version: 6.00 Build 0)  -->
<svg version="1.1"
	 id="svg2" xmlns:cc="http://creativecommons.org/ns#" xmlns:dc="http://purl.org/dc/elements/1.1/" xmlns:inkscape="http://www.inkscape.org/namespaces/inkscape" xmlns:rdf="http://www.w3.org/1999/02/22-rdf-syntax-ns#" xmlns:sodipodi="http://sodipodi.sourceforge.net/DTD/sodipodi-0.dtd" xmlns:svg="http://www.w3.org/2000/svg"
	 xmlns="http://www.w3.org/2000/svg" xmlns:xlink="http://www.w3.org/1999/xlink" x="0px" y="0px" viewBox="0 0 30 9"
	 style="enable-background:new 0 0 30 9;" xml:space="preserve">
<sodipodi:namedview  bordercolor="#666666" borderopacity="1" fit-margin-bottom="0" fit-margin-left="0" fit-margin-right="0" fit-margin-top="0" gridtolerance="10" guidetolerance="10" id="namedview30" inkscape:current-layer="svg2" inkscape:cx="15.812761" inkscape:cy="-4.8799132" inkscape:pageopacity="0" inkscape:pageshadow="2" inkscape:window-height="1018" inkscape:window-maximized="1" inkscape:window-width="1920" inkscape:window-x="-8" inkscape:window-y="-8" inkscape:zoom="8.3531602" objecttolerance="10" pagecolor="#ffffff" showgrid="false">
	</sodipodi:namedview>
<a id="a18" transform="translate(-13.174896,-3.8302961)">
	<path id="path20" inkscape:connector-curvature="0" d="M34,12.7H13.8c-0.4,0-0.6-0.2-0.6-0.7V4.5c0-0.4,0.2-0.7,0.6-0.7H34
		c0.4,0,0.6,0.2,0.6,0.7v7.8C34.7,12.5,34.5,12.7,34,12.7z"/>
</a>
<path d="M27.8,4.5c-1.3,0-2.1-1.1-2.1-2.2c0-1.3,1.1-2.2,2.1-2.2C29.1,0,30,1.1,30,2.2C30,3.6,29.1,4.5,27.8,4.5L27.8,4.5z"/>
</svg>
