<?xml version="1.0" encoding="utf-8"?>
<!-- Generator: Adobe Illustrator 24.0.1, SVG Export Plug-In . SVG Version: 6.00 Build 0)  -->
<svg version="1.1"
	 id="svg2" xmlns:cc="http://creativecommons.org/ns#" xmlns:dc="http://purl.org/dc/elements/1.1/" xmlns:inkscape="http://www.inkscape.org/namespaces/inkscape" xmlns:rdf="http://www.w3.org/1999/02/22-rdf-syntax-ns#" xmlns:sodipodi="http://sodipodi.sourceforge.net/DTD/sodipodi-0.dtd" xmlns:svg="http://www.w3.org/2000/svg"
	 xmlns="http://www.w3.org/2000/svg" xmlns:xlink="http://www.w3.org/1999/xlink" x="0px" y="0px" viewBox="0 0 25 39"
	 style="enable-background:new 0 0 25 39;" xml:space="preserve">
<sodipodi:namedview  bordercolor="#666666" borderopacity="1" fit-margin-bottom="0" fit-margin-left="0" fit-margin-right="0" fit-margin-top="0" gridtolerance="10" guidetolerance="10" id="namedview84" inkscape:current-layer="svg2" inkscape:cx="126.38557" inkscape:cy="-11.861285" inkscape:pageopacity="0" inkscape:pageshadow="2" inkscape:window-height="1018" inkscape:window-maximized="1" inkscape:window-width="1920" inkscape:window-x="-8" inkscape:window-y="-8" inkscape:zoom="4" objecttolerance="10" pagecolor="#ffffff" showgrid="false">
	</sodipodi:namedview>
<a id="a64" transform="translate(-48.3243,-5.8453001)">
	<path id="path66" inkscape:connector-curvature="0" d="M53.4,43.8l5.7-17.5c-1.8,0.6-3.9,1.3-6,1.3c-2.5,0-4.8-1.7-4.8-4.3
		c0-2.1,1.8-3.8,4.1-3.8c1.4,0,2.7,0.9,3.2,2.1c0.5,1.5,0.2,3.2,1.8,3.2c0.9,0,3-2.8,3.4-3.6l2.5-8.1c-1.8,0.6-3.9,1.3-6,1.3
		c-2.5,0-4.8-1.7-4.8-4.3c0-2.1,1.8-3.8,4.1-3.8c1.4,0,2.7,0.9,3.2,2.1c0.5,1.5,0.2,3.2,1.8,3.2c0.9,0,2.7-2.6,3.2-3.4
		c0.2-0.6,1.4-0.6,1.6,0L56.6,44.2c-0.5,0.4-0.9,0.6-1.6,0.6C54.3,44.8,53.8,44.2,53.4,43.8z"/>
</a>
<path d="M22.7,4.3c-1.4,0-2.3-1.1-2.3-2.1c0-1.3,1.1-2.1,2.3-2.1C24.1,0,25,1.1,25,2.1C25,3.4,24.1,4.3,22.7,4.3L22.7,4.3z"/>
</svg>
