<?xml version="1.0" encoding="utf-8"?>
<!-- Generator: Adobe Illustrator 24.0.1, SVG Export Plug-In . SVG Version: 6.00 Build 0)  -->
<svg version="1.1"
	 id="svg2" xmlns:cc="http://creativecommons.org/ns#" xmlns:dc="http://purl.org/dc/elements/1.1/" xmlns:inkscape="http://www.inkscape.org/namespaces/inkscape" xmlns:rdf="http://www.w3.org/1999/02/22-rdf-syntax-ns#" xmlns:sodipodi="http://sodipodi.sourceforge.net/DTD/sodipodi-0.dtd" xmlns:svg="http://www.w3.org/2000/svg"
	 xmlns="http://www.w3.org/2000/svg" xmlns:xlink="http://www.w3.org/1999/xlink" x="0px" y="0px" viewBox="0 0 15 27"
	 style="enable-background:new 0 0 15 27;" xml:space="preserve">
<sodipodi:namedview  bordercolor="#666666" borderopacity="1" fit-margin-bottom="0" fit-margin-left="0" fit-margin-right="0" fit-margin-top="0" gridtolerance="10" guidetolerance="10" id="namedview84" inkscape:current-layer="svg2" inkscape:cx="233.64363" inkscape:cy="-80.051987" inkscape:pageopacity="0" inkscape:pageshadow="2" inkscape:window-height="1018" inkscape:window-maximized="1" inkscape:window-width="1920" inkscape:window-x="-8" inkscape:window-y="-8" inkscape:zoom="2" objecttolerance="10" pagecolor="#ffffff" showgrid="false">
	</sodipodi:namedview>
<a id="a68" transform="translate(-41.4163,-5.8453001)">
	<path id="path70" inkscape:connector-curvature="0" d="M45.9,32.2L53,13.3c-2,0.7-4.1,1.4-6.4,1.4c-2.8,0-5.3-2-5.3-4.5
		c0-2.3,2-4.3,4.3-4.3c1.5,0,2.8,0.9,3.3,2.3c0.5,1.6,0.3,3.4,2,3.4c1,0,3.3-2.7,3.6-3.6c0.3-0.7,1.3-0.7,1.8,0L49,32.2
		c-0.5,0.5-1,0.7-1.5,0.7C46.9,32.7,46.4,32.7,45.9,32.2z"/>
</a>
</svg>
