<?xml version="1.0" encoding="utf-8"?>
<!-- Generator: Adobe Illustrator 24.0.1, SVG Export Plug-In . SVG Version: 6.00 Build 0)  -->
<svg version="1.1" id="svg1463" xmlns:svg="http://www.w3.org/2000/svg"
	 xmlns="http://www.w3.org/2000/svg" xmlns:xlink="http://www.w3.org/1999/xlink" x="0px" y="0px" viewBox="0 0 27 81"
	 style="enable-background:new 0 0 27 81;" xml:space="preserve">
<style type="text/css">
	.st0{fill-rule:evenodd;clip-rule:evenodd;fill:#131516;stroke:#131516;stroke-width:0.6023;}
</style>
<path id="path9" class="st0" d="M15.6,44.7c-1.2,0.3-2.3,0.9-3.3,2c-1,1.1-1.6,2.4-1.7,3.8c-0.1,0.9,0.2,1.9,0.6,3
	c0.5,1.1,1.3,2,2.3,2.5c0.4,0.1,0.5,0.3,0.5,0.6c0,0.1-0.1,0.2-0.5,0.2c-1.7-0.6-3.1-1.7-4.1-3.2c-1-1.6-1.5-3.3-1.4-5.2
	c0.2-2.1,0.9-3.9,2.1-5.6c1.3-1.7,2.8-2.8,4.6-3.5L14,32.2c-3.1,2.3-5.6,4.8-7.7,7.5c-2,2.6-3.2,5.6-3.5,8.8C2.9,50,3,51.4,3.5,52.8
	c0.4,1.4,1.2,2.7,2.1,3.9c2,2.4,4.7,3.8,8.1,4.2c1.2,0,2.4-0.1,3.8-0.4L15.6,44.7z M17,44.6l2,15.6c3-1,4.6-3.6,4.9-7.7
	c-0.1-1.4-0.4-2.7-1-3.8c-0.6-1.2-1.3-2.1-2.4-2.8C19.5,45.1,18.3,44.7,17,44.6z M14.4,23.5c0.7-0.4,1.4-1,2.3-1.9
	c0.8-0.9,1.7-2,2.5-3.2c0.8-1.2,1.5-2.5,2-3.8c0.5-1.3,0.8-2.5,0.9-3.7c0-0.5,0-1,0-1.4c0-0.7-0.2-1.3-0.5-1.7
	c-0.3-0.4-0.8-0.6-1.4-0.7C19,7,18,7.7,16.9,9.1c-0.8,1.2-1.5,2.7-2,4.4c-0.6,1.7-0.9,3.4-1.1,5.1C13.8,20.6,14,22.2,14.4,23.5z
	 M13.2,24.6c-0.6-3.3-0.9-6.6-0.8-10c0.2-2.2,0.5-4.2,1-6c0.5-1.8,1.2-3.4,2-4.8c0.8-1.3,1.7-2.3,2.6-3C18.9,0.3,19.5,0,19.8,0
	c0.2,0,0.4,0.1,0.6,0.3c0.2,0.2,0.4,0.5,0.7,0.9c2,3.5,2.9,7.7,2.6,12.4c-0.1,2.3-0.6,4.4-1.3,6.6c-0.7,2.1-1.6,4.2-2.9,6
	c-1.2,1.9-2.6,3.5-4.2,4.8l1,8c0.8,0,1.4-0.1,1.7-0.1c1.4,0.1,2.7,0.5,3.9,1.2s2.1,1.7,2.9,2.8c0.8,1.1,1.3,2.4,1.7,3.9
	c0.3,1.4,0.5,2.9,0.4,4.4c-0.2,2.4-0.9,4.5-2.2,6.3s-3.2,3.1-5.6,3.9c0.1,1,0.3,2.4,0.5,4.3c0.3,1.9,0.4,3.3,0.6,4.4
	c0.1,1.1,0.1,2.1,0.1,3.2c-0.1,1.6-0.6,2.9-1.4,4.1c-0.8,1.2-1.9,2.1-3.2,2.7c-1.3,0.6-2.7,0.8-4.2,0.7c-2.1-0.2-3.9-0.9-5.4-2.2
	c-1.5-1.4-2.2-3.1-2.1-5.2c0.1-0.9,0.4-1.8,0.8-2.6c0.4-0.8,1-1.5,1.7-1.9c0.7-0.5,1.5-0.7,2.4-0.7c0.7,0.1,1.4,0.3,2.1,0.8
	c0.6,0.5,1.1,1.1,1.5,1.9c0.3,0.8,0.5,1.6,0.4,2.5c-0.1,1.2-0.5,2.1-1.3,2.9c-0.8,0.8-1.8,1.1-3,1l-0.4,0c0.7,1.3,1.8,2,3.5,2.1
	c0.9,0.1,1.7-0.1,2.6-0.4c0.9-0.3,1.7-0.8,2.4-1.4c0.7-0.6,1.1-1.2,1.3-1.9c0.4-0.8,0.6-1.9,0.7-3.3c0.1-1,0-1.9-0.1-2.9
	c-0.1-1-0.3-2.2-0.6-3.8c-0.3-1.6-0.4-2.8-0.5-3.6c-1.2,0.2-2.3,0.3-3.6,0.2c-2.1-0.2-4-0.7-5.8-1.8c-1.8-1-3.3-2.4-4.6-4.1
	c-1.3-1.7-2.2-3.6-2.9-5.7c-0.6-2.1-0.9-4.2-0.8-6.4c0.2-2,0.7-4,1.5-5.7c0.8-1.8,1.8-3.5,3-5.1c1.2-1.6,2.4-3,3.7-4.2
	C9.4,28.1,11.1,26.5,13.2,24.6z"/>
</svg>
