<?xml version="1.0" encoding="utf-8"?>
<!-- Generator: Adobe Illustrator 24.0.1, SVG Export Plug-In . SVG Version: 6.00 Build 0)  -->
<svg version="1.1" id="svg1437" xmlnsSvg="http://www.w3.org/2000/svg"
	 xmlns="http://www.w3.org/2000/svg" xmlnsXlink="http://www.w3.org/1999/xlink" x="0px" y="0px" viewBox="0 0 15 10"
	 style="enable-background:new 0 0 15 10;" xmlSpace="preserve">

<path id="path3937" class="st0" d="M7,0C3,0.2-0.1,2.3-0.1,5c0,2.8,3.4,5,7.5,5s7.5-2.2,7.5-5s-3.4-5-7.5-5C7.3,0,7.1,0,7,0z M5.7,1
	C6.8,0.8,8,1.4,9.1,2.6c1.6,1.8,2.2,4.2,1.3,5.5l0,0C9.4,9.3,7.3,9,5.6,7.2C4,5.5,3.4,3,4.4,1.7C4.7,1.2,5.2,1,5.7,1z"/>
</svg>
