<?xml version="1.0" encoding="utf-8"?>
<!-- Generator: Adobe Illustrator 24.0.1, SVG Export Plug-In . SVG Version: 6.00 Build 0)  -->
<svg version="1.1" id="svg1552" xmlnsSvg="http://www.w3.org/2000/svg"
	 xmlns="http://www.w3.org/2000/svg" xmlnsXlink="http://www.w3.org/1999/xlink" x="0px" y="0px" viewBox="0 0 21 45"
	 style="enable-background:new 0 0 21 45;" xmlSpace="preserve">

<g id="g12024" transform="translate(-461.4671,-174.402)">
	<path id="path11141" class="st0" d="M466,175.8c-3.5,2-5.4,5.6-4.2,8.3c1.2,2.9,5.4,3.7,9.4,1.8s6.2-5.8,4.9-8.6
		c-1.2-2.9-5.4-3.7-9.4-1.8C466.5,175.5,466.3,175.6,466,175.8z"/>
	<path id="path11143" class="st1" d="M462.3,182.7v36.7"/>
	<path id="path12022" class="st2" d="M462.3,218.4c-0.6-6.9,5-9.4,7.7-12.6c2.6-3,3.6-6.5,3.4-9.8c0-0.9-0.3-4.7-2.7-8.5
		c3.3,9.6,0.2,13.4-2.7,16.5C464.4,207.6,461.7,211.1,462.3,218.4z"/>
</g>
<path d="M18.9,4c-1.1,0-2-0.9-2-2C17,0.8,17.9,0,19,0c1.1,0,2,0.9,2,2C21,3.1,20.1,4,19,4H18.9z"/>
</svg>
