<?xml version="1.0" encoding="utf-8"?>
<!-- Generator: Adobe Illustrator 24.0.1, SVG Export Plug-In . SVG Version: 6.00 Build 0)  -->
<svg version="1.1" id="svg1600" xmlnsSvg="http://www.w3.org/2000/svg"
	 xmlns="http://www.w3.org/2000/svg" xmlnsXlink="http://www.w3.org/1999/xlink" x="0px" y="0px" viewBox="0 0 15 45"
	 style="enable-background:new 0 0 15 45;" xmlSpace="preserve">

<g id="g16526" transform="translate(-371.6918,-254.0553)">
	<path id="path16515" class="st0" d="M376.2,255.3c-3.5,1.8-5.4,5.1-4.2,7.6c1.2,2.6,5.4,3.4,9.4,1.7c4-1.7,6.2-5.2,4.9-7.9
		c-1.2-2.6-5.4-3.4-9.4-1.7C376.7,255.1,376.5,255.2,376.2,255.3z"/>
	<path id="path16517" class="st1" d="M372.5,261.4v37.7"/>
	<path id="path16519" class="st2" d="M372.2,299.1c-0.6-6.3,5-8.5,7.7-11.4c2.6-2.8,3.6-6,3.4-9c0-0.8-0.3-4.3-2.7-7.7
		c3.3,8.7,0.2,12.2-2.7,15C374.4,289.3,371.7,292.4,372.2,299.1z"/>
	<path id="path16524" class="st2" d="M372.1,292.1c-0.6-6.3,5-8.5,7.7-11.4c2.6-2.8,3.6-6,3.4-9c0-0.8-0.3-4.3-2.7-7.7
		c3.3,8.7,0.2,12.2-2.7,15C374.3,282.3,371.6,285.5,372.1,292.1z"/>
</g>
</svg>
