<?xml version="1.0" encoding="utf-8"?>
<!-- Generator: Adobe Illustrator 24.0.1, SVG Export Plug-In . SVG Version: 6.00 Build 0)  -->
<svg version="1.1" id="svg1572" xmlnsSvg="http://www.w3.org/2000/svg"
	 xmlns="http://www.w3.org/2000/svg" xmlnsXlink="http://www.w3.org/1999/xlink" x="0px" y="0px" viewBox="0 0 25 45"
	 style="enable-background:new 0 0 25 45;" xmlSpace="preserve">

<g id="g16559" transform="translate(-393.8446,-234.1771)">
	<path id="path16482" class="st0" d="M398.4,268.8c-3.5,1.9-5.3,5.2-4.2,7.7c1.2,2.7,5.4,3.4,9.3,1.7c3.9-1.8,6.1-5.4,4.9-8
		c-1.2-2.7-5.4-3.4-9.3-1.7C398.9,268.6,398.6,268.7,398.4,268.8z"/>
	<path id="path16484" class="st1" d="M408.2,271.6v-37.5"/>
	<path id="path16486" class="st2" d="M407.7,234.9c-0.6,6.4,5,8.7,7.7,11.7c2.6,2.8,3.5,6.1,3.4,9.1c0,0.8-0.3,4.4-2.7,7.9
		c3.2-8.9,0.2-12.5-2.7-15.3C409.8,244.9,407.2,241.7,407.7,234.9z"/>
	<path id="path16488" class="st2" d="M407.5,241c-0.6,6.4,5,8.7,7.7,11.7c2.6,2.8,3.5,6.1,3.4,9.1c0,0.8-0.3,4.4-2.7,7.9
		c3.2-8.9,0.2-12.5-2.7-15.3C409.6,251,406.9,247.8,407.5,241z"/>
</g>
<path d="M19.1,37.4c-1.1,0-2-0.9-2-2c0-1.1,0.9-2,2.1-1.9c1.1,0,2,0.9,2,2c0,1.1-0.9,1.9-2,1.9H19.1z"/>
</svg>
