<?xml version="1.0" encoding="utf-8"?>
<!-- Generator: Adobe Illustrator 24.0.1, SVG Export Plug-In . SVG Version: 6.00 Build 0)  -->
<svg version="1.1" id="svg1463" xmlnsSvg="http://www.w3.org/2000/svg"
	 xmlns="http://www.w3.org/2000/svg" xmlnsXlink="http://www.w3.org/1999/xlink" x="0px" y="0px" viewBox="0 0 30 45"
	 style="enable-background:new 0 0 30 45;" xmlSpace="preserve">

<path id="path10999" class="st0" d="M25.5,43.7c3.5-2,5.4-5.6,4.2-8.3c-1.2-2.9-5.4-3.7-9.4-1.8c-4,1.9-6.2,5.8-4.9,8.6
	s5.4,3.7,9.4,1.8C25,43.9,25.3,43.8,25.5,43.7z M24.4,41.2c-0.2,0.1-0.5,0.2-0.8,0.4c-3.4,1.6-6.6,1.7-7.3,0.2s1.6-4,4.9-5.7
	c3.4-1.6,6.6-1.7,7.3-0.2C29.1,37.3,27.3,39.6,24.4,41.2z"/>
</svg>
