<?xml version="1.0" encoding="utf-8"?>
<!-- Generator: Adobe Illustrator 24.0.1, SVG Export Plug-In . SVG Version: 6.00 Build 0)  -->
<svg version="1.1" id="svg1463" xmlnsSvg="http://www.w3.org/2000/svg"
	 xmlns="http://www.w3.org/2000/svg" xmlnsXlink="http://www.w3.org/1999/xlink" x="0px" y="0px" viewBox="0 0 21 45"
	 style="enable-background:new 0 0 21 45;" xmlSpace="preserve">

<g>
	<g id="g10997" transform="matrix(-1,0,0,-1,247.8306,258.8548)">
		<path id="path10999" class="st0" d="M243.3,257.4c3.5-2,5.4-5.6,4.2-8.3c-1.2-2.9-5.4-3.7-9.4-1.8c-4,1.9-6.2,5.7-5,8.6
			c1.2,2.9,5.4,3.7,9.4,1.8C242.8,257.6,243,257.5,243.3,257.4z M242.1,254.9c-0.2,0.1-0.5,0.2-0.8,0.4c-3.4,1.6-6.6,1.7-7.3,0.2
			c-0.6-1.5,1.6-4,5-5.6c3.4-1.6,6.6-1.7,7.3-0.2C246.9,251,245.1,253.3,242.1,254.9z"/>
		<path id="path11001" class="st1" d="M247,250.5v-36.6"/>
	</g>
	<path d="M18.9,4c-1.1,0-2-0.9-2-2C17,0.8,17.9,0,19,0c1.1,0,2,0.9,2,2C21,3.1,20.1,4,19,4H18.9z"/>
</g>
</svg>
